<svg width="375" height="269" viewBox="0 0 375 269" fill="none" xmlns="http://www.w3.org/2000/svg">
<mask id="mask0_1_496" style="mask-type:luminance" maskUnits="userSpaceOnUse" x="0" y="-80" width="375" height="349">
<path d="M0 -80H375V269H0V-80Z" fill="white"/>
</mask>
<g mask="url(#mask0_1_496)">
<path d="M-25 313.5V-245V-352L393 -344.5C395 -219.5 397.8 32.9 393 86.5C388.2 140.1 341.695 167.39 275.5 161C42.5 138.507 27.5 232 -25 313.5Z" fill="url(#paint0_linear_1_496)"/>
<path d="M-66.9999 149.5C-69.9999 124.5 -41.9708 52.7282 91.0001 67C282 87.5 362 -9 375 -152C388 -295 418.005 -235.391 416 -302.5C414.609 -349.083 326 -443 326 -443" stroke="white" stroke-opacity="0.13"/>
<path d="M-105.79 81.5C-108.79 56.5 -80.7611 -15.2718 52.2099 -1C243.21 19.5 323.21 -77 336.21 -220C349.21 -363 379.214 -303.391 377.21 -370.5C375.818 -417.083 287.21 -511 287.21 -511" stroke="white" stroke-opacity="0.13"/>
</g>
<path d="M112.288 103.72C109.152 103.72 106.688 106.072 106.688 109.416C106.688 112.76 109.152 115.096 112.288 115.096C115.312 115.096 117.504 112.872 117.76 110.104V108.984H111.76V110.168H116.208C115.984 112.376 114.48 113.784 112.288 113.784C109.936 113.784 108.176 112.088 108.176 109.416C108.176 106.728 109.936 105.032 112.288 105.032C113.856 105.032 115.072 105.784 115.68 107.08H117.424C116.592 104.936 114.64 103.72 112.288 103.72ZM131.453 107.128C131.453 108.376 130.733 109.272 129.085 109.272H126.941V105.048H129.085C130.749 105.048 131.453 105.864 131.453 107.128ZM125.485 103.848V115H126.941V110.44H128.701L131.357 115H133.101L130.301 110.328C132.173 109.912 132.957 108.552 132.957 107.128C132.957 105.304 131.709 103.848 129.085 103.848H125.485ZM151.675 109.416C151.675 106.072 149.227 103.72 146.075 103.72C142.939 103.72 140.475 106.072 140.475 109.416C140.475 112.76 142.939 115.112 146.075 115.112C149.227 115.112 151.675 112.76 151.675 109.416ZM141.963 109.416C141.963 106.68 143.723 104.984 146.075 104.984C148.427 104.984 150.187 106.68 150.187 109.416C150.187 112.136 148.427 113.848 146.075 113.848C143.723 113.848 141.963 112.136 141.963 109.416ZM158.854 109.416C158.854 112.76 161.302 115.096 164.422 115.096C166.838 115.096 168.758 113.896 169.59 111.752H167.846C167.238 113.08 166.054 113.832 164.422 113.832C162.086 113.832 160.342 112.136 160.342 109.416C160.342 106.68 162.086 104.984 164.422 104.984C166.054 104.984 167.238 105.736 167.846 107.08H169.59C168.758 104.92 166.838 103.704 164.422 103.704C161.302 103.704 158.854 106.072 158.854 109.416ZM183.557 103.832H177.557V115H183.557V113.8H179.013V109.96H183.077V108.76H179.013V105.032H183.557V103.832ZM197.528 107.128C197.528 108.376 196.808 109.272 195.16 109.272H193.016V105.048H195.16C196.824 105.048 197.528 105.864 197.528 107.128ZM191.56 103.848V115H193.016V110.44H194.776L197.432 115H199.176L196.376 110.328C198.248 109.912 199.032 108.552 199.032 107.128C199.032 105.304 197.784 103.848 195.16 103.848H191.56ZM209.815 110.792V115H211.271V110.792L214.903 103.848H213.287L210.535 109.496L207.783 103.848H206.167L209.815 110.792ZM239.792 115H241.328L237.312 103.912H235.632L231.6 115H233.136L234.032 112.52H238.896L239.792 115ZM238.48 111.336H234.448L236.464 105.704L238.48 111.336ZM250.341 109.144V105.048H252.485C254.149 105.048 254.853 105.816 254.853 107.112C254.853 108.36 254.149 109.144 252.485 109.144H250.341ZM256.341 107.112C256.341 105.288 255.109 103.848 252.485 103.848H248.885V115H250.341V110.344H252.485C255.253 110.344 256.341 108.808 256.341 107.112ZM265.407 109.144V105.048H267.551C269.215 105.048 269.919 105.816 269.919 107.112C269.919 108.36 269.215 109.144 267.551 109.144H265.407ZM271.407 107.112C271.407 105.288 270.175 103.848 267.551 103.848H263.951V115H265.407V110.344H267.551C270.319 110.344 271.407 108.808 271.407 107.112Z" fill="white"/>
<path d="M122.06 93.279V85.4963H114.633V64.4456H106.832V93.279H122.06ZM132.657 93.279C136.44 93.279 140.037 91.2162 141.112 87.5592C143.12 80.6673 145.316 73.7285 145.316 71.6188C145.316 67.493 142.186 64.4924 138.075 64.4924H128.265C124.015 64.4924 120.651 67.1179 120.651 71.5719C120.651 74.1974 123.968 84.418 124.902 87.6061C125.93 91.0755 129.246 93.279 132.657 93.279ZM133.778 84.8869C133.637 85.3088 133.311 85.5432 132.984 85.5432C132.657 85.5432 132.33 85.3088 132.143 84.8869L128.499 72.322H137.421L133.778 84.8869ZM170.762 93.279L163.055 78.792C163.522 78.2763 163.896 77.8074 164.176 77.4324C166.325 74.3849 168.333 68.0087 169.922 64.4456H161.513L158.103 72.4158C157.823 73.1191 157.029 73.963 156.328 74.338V64.4456H148.574V74.4318H146.331V82.1676H148.574V93.279H156.328V82.6833L161.934 93.279H170.762ZM201.044 93.279V64.4456H192.963L187.03 74.3849L181.051 64.4456H172.97V93.279H180.677V78.7451L187.077 89.2002L193.337 78.8389V93.279H201.044ZM223.157 93.279V64.3987H221.569C210.685 64.3987 203.257 73.2597 203.257 83.1522V93.279H211.012V86.9966H215.449V93.279H223.157ZM215.449 79.2608H211.525C212.273 76.8697 213.487 74.8537 215.449 73.4472V79.2608ZM249.251 93.279C246.868 90.1847 243.739 86.2934 241.309 83.1053C242.244 81.6519 244.487 75.8383 245.046 73.8223C245.233 73.1191 245.374 72.2751 245.374 71.4312C245.374 67.3524 241.729 64.4456 238.226 64.4456H225.334V93.279H233.041V86.9966H234.302L239.394 93.279H249.251ZM237.386 72.4627L235.144 78.0887C234.769 79.0264 234.21 79.2608 233.743 79.2608H233.041V72.2751H237.386V72.4627ZM271.107 72.2751V64.4456H248.824V72.2751H256.065V93.279H263.819V72.2751H271.107Z" fill="white"/>
<defs>
<linearGradient id="paint0_linear_1_496" x1="-25" y1="-19.2502" x2="398.947" y2="-19.2502" gradientUnits="userSpaceOnUse">
<stop stop-color="#FF8B38"/>
<stop offset="1" stop-color="#F3664B"/>
</linearGradient>
</defs>
</svg>
