<svg width="252" height="126" viewBox="0 0 252 126" fill="none" xmlns="http://www.w3.org/2000/svg">
<path d="M46.8265 108.904C46.5172 108.253 46.0692 107.752 45.4825 107.4C44.8958 107.037 44.2132 106.856 43.4345 106.856C42.6558 106.856 41.9518 107.037 41.3225 107.4C40.7038 107.752 40.2132 108.264 39.8505 108.936C39.4985 109.597 39.3225 110.365 39.3225 111.24C39.3225 112.114 39.4985 112.882 39.8505 113.544C40.2132 114.205 40.7038 114.717 41.3225 115.08C41.9518 115.432 42.6558 115.608 43.4345 115.608C44.5225 115.608 45.4185 115.282 46.1225 114.632C46.8265 113.981 47.2372 113.101 47.3545 111.992H42.9065V110.808H48.9065V111.928C48.8212 112.845 48.5332 113.688 48.0425 114.456C47.5518 115.213 46.9065 115.816 46.1065 116.264C45.3065 116.701 44.4158 116.92 43.4345 116.92C42.3998 116.92 41.4558 116.68 40.6025 116.2C39.7492 115.709 39.0718 115.032 38.5705 114.168C38.0798 113.304 37.8345 112.328 37.8345 111.24C37.8345 110.152 38.0798 109.176 38.5705 108.312C39.0718 107.437 39.7492 106.76 40.6025 106.28C41.4558 105.789 42.3998 105.544 43.4345 105.544C44.6185 105.544 45.6638 105.837 46.5705 106.424C47.4878 107.01 48.1545 107.837 48.5705 108.904H46.8265ZM62.5036 116.824L59.8476 112.264H58.0876V116.824H56.6316V105.672H60.2316C61.0743 105.672 61.7836 105.816 62.3596 106.104C62.9463 106.392 63.3836 106.781 63.6716 107.272C63.9596 107.762 64.1036 108.322 64.1036 108.952C64.1036 109.72 63.8796 110.397 63.4316 110.984C62.9943 111.57 62.3329 111.96 61.4476 112.152L64.2476 116.824H62.5036ZM58.0876 111.096H60.2316C61.0209 111.096 61.6129 110.904 62.0076 110.52C62.4023 110.125 62.5996 109.602 62.5996 108.952C62.5996 108.29 62.4023 107.778 62.0076 107.416C61.6236 107.053 61.0316 106.872 60.2316 106.872H58.0876V111.096ZM77.222 116.936C76.1873 116.936 75.2433 116.696 74.39 116.216C73.5366 115.725 72.8593 115.048 72.358 114.184C71.8673 113.309 71.622 112.328 71.622 111.24C71.622 110.152 71.8673 109.176 72.358 108.312C72.8593 107.437 73.5366 106.76 74.39 106.28C75.2433 105.789 76.1873 105.544 77.222 105.544C78.2673 105.544 79.2167 105.789 80.07 106.28C80.9233 106.76 81.5953 107.432 82.086 108.296C82.5766 109.16 82.822 110.141 82.822 111.24C82.822 112.338 82.5766 113.32 82.086 114.184C81.5953 115.048 80.9233 115.725 80.07 116.216C79.2167 116.696 78.2673 116.936 77.222 116.936ZM77.222 115.672C78.0006 115.672 78.6993 115.49 79.318 115.128C79.9473 114.765 80.438 114.248 80.79 113.576C81.1527 112.904 81.334 112.125 81.334 111.24C81.334 110.344 81.1527 109.565 80.79 108.904C80.438 108.232 79.9526 107.714 79.334 107.352C78.7153 106.989 78.0113 106.808 77.222 106.808C76.4326 106.808 75.7286 106.989 75.11 107.352C74.4913 107.714 74.0006 108.232 73.638 108.904C73.286 109.565 73.11 110.344 73.11 111.24C73.11 112.125 73.286 112.904 73.638 113.576C74.0006 114.248 74.4913 114.765 75.11 115.128C75.7393 115.49 76.4433 115.672 77.222 115.672ZM90.0001 111.24C90.0001 110.152 90.2454 109.176 90.7361 108.312C91.2268 107.437 91.8934 106.754 92.7361 106.264C93.5894 105.773 94.5334 105.528 95.5681 105.528C96.7841 105.528 97.8454 105.821 98.7521 106.408C99.6588 106.994 100.32 107.826 100.736 108.904H98.9921C98.6828 108.232 98.2348 107.714 97.6481 107.352C97.0721 106.989 96.3788 106.808 95.5681 106.808C94.7894 106.808 94.0908 106.989 93.4721 107.352C92.8534 107.714 92.3681 108.232 92.0161 108.904C91.6641 109.565 91.4881 110.344 91.4881 111.24C91.4881 112.125 91.6641 112.904 92.0161 113.576C92.3681 114.237 92.8534 114.749 93.4721 115.112C94.0908 115.474 94.7894 115.656 95.5681 115.656C96.3788 115.656 97.0721 115.48 97.6481 115.128C98.2348 114.765 98.6828 114.248 98.9921 113.576H100.736C100.32 114.642 99.6588 115.469 98.7521 116.056C97.8454 116.632 96.7841 116.92 95.5681 116.92C94.5334 116.92 93.5894 116.68 92.7361 116.2C91.8934 115.709 91.2268 115.032 90.7361 114.168C90.2454 113.304 90.0001 112.328 90.0001 111.24ZM110.159 106.856V110.584H114.223V111.784H110.159V115.624H114.703V116.824H108.703V105.656H114.703V106.856H110.159ZM128.579 116.824L125.923 112.264H124.163V116.824H122.707V105.672H126.307C127.149 105.672 127.859 105.816 128.435 106.104C129.021 106.392 129.459 106.781 129.747 107.272C130.035 107.762 130.179 108.322 130.179 108.952C130.179 109.72 129.955 110.397 129.507 110.984C129.069 111.57 128.408 111.96 127.523 112.152L130.323 116.824H128.579ZM124.163 111.096H126.307C127.096 111.096 127.688 110.904 128.083 110.52C128.477 110.125 128.675 109.602 128.675 108.952C128.675 108.29 128.477 107.778 128.083 107.416C127.699 107.053 127.107 106.872 126.307 106.872H124.163V111.096ZM146.049 105.672L142.417 112.616V116.824H140.961V112.616L137.313 105.672H138.929L141.681 111.32L144.433 105.672H146.049ZM170.042 114.344H165.178L164.282 116.824H162.746L166.778 105.736H168.458L172.474 116.824H170.938L170.042 114.344ZM169.626 113.16L167.61 107.528L165.594 113.16H169.626ZM187.488 108.936C187.488 109.864 187.168 110.637 186.528 111.256C185.898 111.864 184.933 112.168 183.632 112.168H181.488V116.824H180.032V105.672H183.632C184.89 105.672 185.845 105.976 186.496 106.584C187.157 107.192 187.488 107.976 187.488 108.936ZM183.632 110.968C184.442 110.968 185.04 110.792 185.424 110.44C185.808 110.088 186 109.586 186 108.936C186 107.56 185.21 106.872 183.632 106.872H181.488V110.968H183.632ZM202.553 108.936C202.553 109.864 202.233 110.637 201.593 111.256C200.964 111.864 199.999 112.168 198.697 112.168H196.553V116.824H195.097V105.672H198.697C199.956 105.672 200.911 105.976 201.561 106.584C202.223 107.192 202.553 107.976 202.553 108.936ZM198.697 110.968C199.508 110.968 200.105 110.792 200.489 110.44C200.873 110.088 201.065 109.586 201.065 108.936C201.065 107.56 200.276 106.872 198.697 106.872H196.553V110.968H198.697Z" fill="#FD853B"/>
<path d="M23.3397 87.6115V64.0019H11.9562V0.142231H0V87.6115H23.3397ZM39.5796 87.6115C45.3787 87.6115 50.8914 81.3536 52.5381 70.2599C55.6167 49.3526 58.9816 28.3031 58.9816 21.9029C58.9816 9.38695 54.1848 0.284455 47.8845 0.284455H32.8497C26.3347 0.284455 21.1799 8.24914 21.1799 21.7607C21.1799 29.7253 26.2631 60.7307 27.695 70.4021C29.27 80.9269 34.3532 87.6115 39.5796 87.6115ZM41.2978 62.153C41.0831 63.433 40.5819 64.1442 40.0807 64.1442C39.5796 64.1442 39.0784 63.433 38.792 62.153L33.2077 24.0363H46.8822L41.2978 62.153ZM97.9817 87.6115L86.1687 43.6635C86.8846 42.099 87.4574 40.6768 87.8869 39.539C91.1803 30.2942 94.2588 10.9514 96.693 0.142231H83.8061L78.5797 24.3207C78.1501 26.4541 76.933 29.0142 75.8591 30.152V0.142231H63.9745V30.4365H60.538V53.9038H63.9745V87.6115H75.8591V55.4683L84.4504 87.6115H97.9817ZM144.392 87.6115V0.142231H132.007L122.914 30.2943L113.75 0.142231H101.364V87.6115H113.177V43.5213L122.986 75.2378L132.579 43.8058V87.6115H144.392ZM178.283 87.6115V0H175.849C159.167 0 147.784 26.8808 147.784 56.8906V87.6115H159.668V68.5532H166.47V87.6115H178.283ZM166.47 45.0858H160.456C161.601 37.8323 163.463 31.7165 166.47 27.4497V45.0858ZM218.274 87.6115C214.623 78.2246 209.827 66.4198 206.103 56.7484C207.535 52.3394 210.973 34.7033 211.831 28.5875C212.117 26.4541 212.333 23.8941 212.333 21.334C212.333 8.96028 206.747 0.142231 201.378 0.142231H181.619V87.6115H193.432V68.5532H195.364L203.168 87.6115H218.274ZM200.09 24.463L196.654 41.5301C196.08 44.3747 195.223 45.0858 194.507 45.0858H193.432V23.8941H200.09V24.463ZM251.772 23.8941V0.142231H217.621V23.8941H228.718V87.6115H240.603V23.8941H251.772Z" fill="#FD853B"/>
</svg>
