<svg width="375" height="376" viewBox="0 0 375 376" fill="none" xmlns="http://www.w3.org/2000/svg">
<path opacity="0.3" d="M297.02 287.179C291.223 293.25 285.75 297.172 281.413 300.273C230.506 336.657 170.275 326.056 157.474 323.461C138.573 319.641 102.037 312.242 75.6159 281.291C35.6443 234.468 41.8772 160.697 72.8694 111.989C78.5448 103.081 108.493 53.6434 169.373 45.7078C206.213 40.9141 249.164 50.5827 280.267 76.548C345.566 131.053 340.924 241.137 297.02 287.179Z" fill="url(#paint0_linear_1_2617)"/>
<path d="M204.773 202.027C204.773 202.027 222.915 111.472 266.636 61.1431C269.575 57.7581 275.291 58.8729 276.7 63.1295C286.135 91.517 305.655 177.906 204.773 202.027Z" fill="url(#paint1_linear_1_2617)"/>
<path opacity="0.5" d="M213.834 195.966C213.611 196.189 213.935 196.513 214.179 196.331C223.32 189.318 258.366 155.123 268.896 88.5983C268.927 88.3854 268.602 88.3145 268.552 88.5273C264.65 103.983 248.434 161.042 213.834 195.966Z" fill="white"/>
<path d="M323.096 104.216C323.542 103.922 323.289 103.142 322.772 103.192C314.452 103.993 284.27 108.989 262.136 139.769C241.887 167.933 231.944 191.618 228.58 200.608C227.911 202.381 229.228 204.398 230.971 204.246C241.268 203.354 269.909 199.158 281.554 179.801C295.449 156.673 302.047 118.445 323.096 104.216Z" fill="url(#paint2_linear_1_2617)"/>
<path opacity="0.5" d="M298.925 119.834C298.925 119.834 272.007 130.627 230.738 200.962C230.748 200.952 275.656 132.907 298.925 119.834Z" fill="white"/>
<path d="M230.658 301.084C230.607 306.242 226.178 310.428 220.756 310.438L89.8351 310.722C84.3826 310.732 79.8523 306.557 79.7206 301.378L73.6194 57.5352C73.4775 51.7381 78.0483 47.0457 83.8454 47.0761L222.813 47.745C228.56 47.7754 233.171 52.488 233.11 58.2547L230.658 301.084Z" fill="url(#paint3_linear_1_2617)"/>
<path d="M218.85 72.3217C218.891 66.7476 214.32 62.2072 208.635 62.1768L98.338 61.6904C92.622 61.6701 88.0917 66.1902 88.2133 71.7745L92.7436 279.101C92.855 284.179 97.3448 288.284 102.777 288.273L207.56 288.111C212.952 288.101 217.361 283.997 217.391 278.939L218.85 72.3217Z" fill="url(#paint4_linear_1_2617)"/>
<path d="M170.113 54.292C170.113 55.3765 169.241 56.2481 168.167 56.2379L139.465 56.1062C138.391 56.1062 137.499 55.2244 137.489 54.14C137.479 53.0556 138.34 52.184 139.414 52.184L168.157 52.3158C169.231 52.3259 170.113 53.2076 170.113 54.292Z" fill="url(#paint5_linear_1_2617)"/>
<path d="M84.1584 61.6904C83.4388 61.6904 82.7699 61.9539 82.3848 62.562C74.3175 75.3014 66.2503 88.4868 58.1729 100.669C66.1084 100.669 74.0338 100.669 81.9693 100.669C88.1819 88.4868 94.3844 74.9163 100.597 61.6904C95.1242 61.6904 89.6413 61.6904 84.1584 61.6904Z" fill="url(#paint6_linear_1_2617)"/>
<path d="M105.777 100.963C97.8414 100.963 89.916 100.963 81.9805 100.963C88.1931 87.8989 94.3956 74.8352 100.608 61.7816C106.476 61.7816 112.334 61.7816 118.202 61.7816C114.047 74.8453 109.912 87.8989 105.777 100.963Z" fill="url(#paint7_linear_1_2617)"/>
<path d="M129.573 100.963C121.638 100.963 113.712 100.963 105.777 100.963C109.912 87.8989 114.057 74.8352 118.192 61.7816C124.06 61.7816 129.918 61.7816 135.786 61.7816C133.708 74.8453 131.641 87.8989 129.573 100.963Z" fill="url(#paint8_linear_1_2617)"/>
<path d="M153.37 100.963C145.434 100.963 137.509 100.963 129.573 100.963C131.641 87.8989 133.708 74.8352 135.786 61.7816C141.654 61.7816 147.512 61.7816 153.38 61.7816C153.37 74.8453 153.37 87.8989 153.37 100.963Z" fill="url(#paint9_linear_1_2617)"/>
<path d="M177.166 100.963C169.231 100.963 161.305 100.963 153.37 100.963C153.37 87.8989 153.37 74.8352 153.37 61.7816C159.238 61.7816 165.096 61.7816 170.964 61.7816C173.031 74.8453 175.099 87.8989 177.166 100.963Z" fill="url(#paint10_linear_1_2617)"/>
<path d="M200.963 100.963C193.027 100.963 185.102 100.963 177.166 100.963C175.099 87.8989 173.031 74.8352 170.954 61.7816C176.822 61.7816 182.68 61.7816 188.548 61.7816C192.683 74.8453 196.828 87.8989 200.963 100.963Z" fill="url(#paint11_linear_1_2617)"/>
<path d="M224.759 100.963C216.823 100.963 208.898 100.963 200.962 100.963C196.827 87.8989 192.682 74.8352 188.547 61.7816C194.415 61.7816 200.273 61.7816 206.141 61.7816C212.344 74.8453 218.546 87.8989 224.759 100.963Z" fill="url(#paint12_linear_1_2617)"/>
<path d="M224.344 62.562C223.958 61.9539 223.289 61.6904 222.57 61.6904C217.087 61.6904 211.614 61.6904 206.131 61.6904C212.344 74.9163 218.546 88.4868 224.759 100.669C232.695 100.669 240.62 100.669 248.555 100.669C240.488 88.4868 232.411 75.3014 224.344 62.562Z" fill="url(#paint13_linear_1_2617)"/>
<path d="M57.8394 100.669V107.459C57.8394 113.114 63.5858 117.381 70.1328 117.381H70.3862C76.9434 117.381 82.1932 113.114 82.1932 107.459V100.669H57.8394Z" fill="url(#paint14_linear_1_2617)"/>
<path d="M82.2031 100.669V107.459C82.2031 113.114 87.2705 117.381 93.7162 117.381H93.9696C100.415 117.381 105.533 113.114 105.533 107.459V100.669H82.2031Z" fill="url(#paint15_linear_1_2617)"/>
<path d="M105.523 100.669V107.459C105.523 113.114 111.138 117.381 117.685 117.381H117.939C124.496 117.381 129.533 113.114 129.533 107.459V100.669H105.523Z" fill="url(#paint16_linear_1_2617)"/>
<path d="M129.533 100.669V107.459C129.533 113.114 134.813 117.381 141.259 117.381H141.512C147.958 117.381 153.208 113.114 153.208 107.459V100.669H129.533Z" fill="url(#paint17_linear_1_2617)"/>
<path d="M153.197 100.669V107.459C153.197 113.114 158.68 117.381 165.227 117.381H165.481C172.038 117.381 176.862 113.114 176.862 107.459V100.669H153.197Z" fill="url(#paint18_linear_1_2617)"/>
<path d="M176.872 100.669V107.459C176.872 113.114 182.365 117.381 188.811 117.381H189.064C195.51 117.381 200.892 113.114 200.892 107.459V100.669H176.872Z" fill="url(#paint19_linear_1_2617)"/>
<path d="M200.881 100.669V107.459C200.881 113.114 206.233 117.381 212.78 117.381H213.033C219.59 117.381 224.891 113.114 224.891 107.459V100.669H200.881Z" fill="url(#paint20_linear_1_2617)"/>
<path d="M224.901 100.669V107.459C224.901 113.114 229.918 117.381 236.363 117.381H236.617C243.062 117.381 248.221 113.114 248.221 107.459V100.669H224.901Z" fill="url(#paint21_linear_1_2617)"/>
<path d="M191.487 237.762C191.487 245.667 185.082 252.072 177.176 252.072H129.573C121.668 252.072 115.263 245.667 115.263 237.762V237.488C115.263 229.583 121.668 223.178 129.573 223.178H177.176C185.082 223.178 191.487 229.583 191.487 237.488V237.762Z" fill="url(#paint22_linear_1_2617)"/>
<path d="M132.046 229.603C132.999 229.411 134.742 229.259 136.435 229.259C138.664 229.259 140.033 229.532 141.158 230.313C142.181 230.921 142.87 232.005 142.87 233.394C142.87 234.914 141.918 236.313 140.124 236.971V237.022C141.867 237.458 143.458 238.836 143.458 241.106C143.458 242.576 142.82 243.731 141.867 244.512C140.691 245.535 138.756 246.052 135.746 246.052C134.083 246.052 132.806 245.93 132.046 245.829V229.603ZM135.026 236.12H136.566C138.644 236.12 139.82 235.137 139.82 233.748C139.82 232.208 138.644 231.498 136.739 231.498C135.857 231.498 135.34 231.549 135.026 231.62V236.12ZM135.026 243.711C135.421 243.762 135.928 243.782 136.617 243.782C138.553 243.782 140.266 243.052 140.266 241.015C140.266 239.11 138.604 238.319 136.516 238.319H135.026V243.711Z" fill="white"/>
<path d="M149.134 229.38V239.008C149.134 242.241 150.481 243.731 152.519 243.731C154.698 243.731 155.995 242.241 155.995 239.008V229.38H159.005V238.806C159.005 243.903 156.38 246.153 152.417 246.153C148.596 246.153 146.124 244.025 146.124 238.836V229.38H149.134Z" fill="white"/>
<path d="M166.2 245.89V239.008L160.981 229.38H164.406L166.393 233.617C166.96 234.843 167.376 235.775 167.812 236.9H167.862C168.278 235.846 168.744 234.823 169.312 233.617L171.298 229.38H174.703L169.221 238.927V245.88H166.2V245.89Z" fill="white"/>
<path d="M190.838 147.562C190.392 147.015 189.703 146.792 188.963 146.812L121.932 148.221L120.239 142.84C120.006 142.09 119.297 141.613 118.506 141.633L109.304 141.877C108.321 141.907 107.52 142.586 107.52 143.569C107.52 144.552 108.321 145.201 109.304 145.181L117.168 144.998L131.398 190.473C131.641 191.243 132.36 191.76 133.171 191.78L180.227 192.409C181.332 192.419 182.223 191.73 182.223 190.686C182.223 189.642 181.332 188.922 180.227 188.912L134.549 188.416L130.881 176.609L181.078 176.69C182.102 176.69 183.014 176.021 183.298 175.088L191.223 149.468C191.426 148.789 191.284 148.099 190.838 147.562Z" fill="white"/>
<path d="M140.052 194.567C136.181 194.507 133.049 197.517 133.049 201.287C133.049 205.047 136.181 208.199 140.052 208.3C143.944 208.401 147.137 205.391 147.137 201.581C147.137 197.77 143.944 194.628 140.052 194.567ZM140.052 204.631C138.238 204.591 136.779 203.121 136.779 201.358C136.779 199.594 138.248 198.186 140.052 198.226C141.867 198.256 143.346 199.726 143.346 201.5C143.346 203.273 141.867 204.672 140.052 204.631Z" fill="white"/>
<path d="M171.419 195.054C167.355 194.993 164.072 198.074 164.072 201.935C164.072 205.787 167.355 209.009 171.419 209.121C175.504 209.232 178.848 206.141 178.848 202.25C178.848 198.348 175.504 195.115 171.419 195.054ZM171.419 205.371C169.524 205.331 167.984 203.82 167.984 202.016C167.984 200.212 169.524 198.773 171.419 198.804C173.325 198.834 174.875 200.344 174.875 202.158C174.875 203.972 173.325 205.412 171.419 205.371Z" fill="white"/>
<path d="M257.211 264.73C257.282 265.714 257.839 267.011 258.761 267.467C262.319 269.251 266.869 256.43 278.078 246.853C291.061 235.765 301.783 238.562 305.047 228.235C306.618 223.269 304.641 220.999 307.175 215.739C310.702 208.422 316.256 209.222 318.972 203.435C322.094 196.787 319.61 185.375 313.084 180.521C304.307 173.994 290.574 181.058 286.338 189.905C283.592 195.652 284.504 202.908 282.862 202.979C281.301 203.05 281.017 196.422 277.44 194.75C272.757 192.561 263.454 199.351 263.099 206.942C262.785 213.935 270.082 220.887 268.764 222.215C268.247 222.742 267.112 221.668 266.322 222.073C264.903 222.803 265.197 227.941 270.426 243.944C270.376 249.163 268.967 252.356 267.65 254.322C263.778 260.15 256.957 260.991 257.211 264.73Z" fill="url(#paint23_linear_1_2617)"/>
<path d="M306.912 194.446C303.973 196.351 301.236 198.55 298.814 201.094C296.382 203.628 294.284 206.496 292.571 209.628C291.72 211.199 290.939 212.82 290.22 214.482C289.875 215.323 289.51 216.154 289.176 217.006C288.831 217.847 288.497 218.698 288.162 219.56L286.145 224.708L285.629 225.995L285.091 227.272C284.737 228.124 284.372 228.965 283.997 229.816C283.257 231.509 282.477 233.171 281.676 234.823C281.271 235.644 280.865 236.475 280.44 237.275L279.811 238.491L279.163 239.698L278.514 240.904L277.845 242.099L277.176 243.295L276.477 244.471L275.778 245.647L275.058 246.802C274.572 247.572 274.095 248.342 273.589 249.092L272.839 250.228L272.464 250.795L272.078 251.353C271.551 252.082 271.035 252.832 270.497 253.552L268.866 255.7C268.318 256.41 267.731 257.099 267.163 257.788C264.852 260.535 262.39 263.129 259.714 265.44L259.582 265.278C262.035 262.714 264.325 259.987 266.464 257.129L267.254 256.045C267.518 255.68 267.791 255.335 268.045 254.96L269.575 252.751C270.558 251.251 271.541 249.751 272.474 248.211C272.95 247.451 273.406 246.67 273.862 245.89L274.541 244.724L275.2 243.539L275.869 242.363L276.517 241.167L277.156 239.971L277.784 238.765C279.436 235.542 281.017 232.269 282.456 228.924C283.896 225.58 285.233 222.164 286.602 218.749C286.946 217.898 287.291 217.036 287.645 216.185C288 215.334 288.385 214.492 288.76 213.651C289.541 211.979 290.362 210.317 291.294 208.726C291.527 208.33 291.78 207.945 292.024 207.55L292.389 206.972L292.784 206.405C293.047 206.03 293.301 205.645 293.574 205.28L294.415 204.206C294.689 203.841 294.993 203.506 295.287 203.162L295.733 202.655C295.885 202.483 296.027 202.31 296.189 202.158C296.817 201.52 297.436 200.861 298.094 200.253C300.729 197.831 303.658 195.794 306.81 194.253L306.912 194.446Z" fill="url(#paint24_linear_1_2617)"/>
<path d="M219.013 181.716C231.286 182.608 247.066 182.558 264.568 182.051L257.819 247.177L220.452 248.89L219.013 181.716Z" fill="url(#paint25_linear_1_2617)"/>
<path d="M219.013 186.439C231.286 187.331 247.066 187.28 264.568 186.774L257.819 251.9L220.452 253.613L219.013 186.439Z" fill="url(#paint26_linear_1_2617)"/>
<path d="M283.115 224.566C274.825 252.548 260.515 271.784 251.17 267.528C241.826 263.271 240.965 237.133 249.265 209.151C257.555 181.169 271.866 161.933 281.21 166.19C290.554 170.447 291.416 196.584 283.115 224.566Z" fill="url(#paint27_linear_1_2617)"/>
<path d="M281.625 204.236C280.845 205.391 276.477 202.29 271.856 197.294C267.234 192.297 264.123 187.321 264.903 186.166C265.683 185.01 270.052 188.111 274.673 193.108C279.294 198.104 282.406 203.081 281.625 204.236Z" fill="url(#paint28_linear_1_2617)"/>
<path d="M276.659 218.769C275.879 219.925 271.511 216.823 266.889 211.827C262.268 206.841 259.157 201.854 259.937 200.699C260.717 199.543 265.085 202.645 269.707 207.641C274.328 212.638 277.44 217.614 276.659 218.769Z" fill="url(#paint29_linear_1_2617)"/>
<path d="M271.805 231.63C271.024 232.785 266.656 229.684 262.035 224.688C257.413 219.701 254.302 214.715 255.082 213.56C255.863 212.404 260.231 215.506 264.852 220.502C269.474 225.488 272.585 230.475 271.805 231.63Z" fill="url(#paint30_linear_1_2617)"/>
<path d="M266.444 244.258C265.663 245.413 261.295 242.312 256.674 237.316C252.052 232.329 248.941 227.343 249.721 226.188C250.502 225.032 254.87 228.134 259.491 233.13C264.113 238.127 267.224 243.103 266.444 244.258Z" fill="url(#paint31_linear_1_2617)"/>
<path d="M221.06 197.162L221.678 167.964L210.895 167.73L210.277 197.06C209.04 197.993 203.882 202.027 203.831 204.135C203.79 206.273 202.645 259.876 202.402 271.429C202.372 272.808 203.395 274.075 204.652 274.632C206.811 275.595 210.469 276.902 213.854 276.973C217.239 277.044 220.665 275.889 222.864 275.017C224.141 274.51 224.83 273.284 224.861 271.906L226.3 204.013C226.3 204.013 226.29 200.82 221.06 197.162Z" fill="url(#paint32_linear_1_2617)"/>
<path d="M221.192 219.185L209.213 218.931C208.554 218.921 208.007 219.438 207.986 220.107L207.307 252.143C207.297 252.802 207.814 253.349 208.483 253.369L220.462 253.623C221.121 253.633 221.668 253.116 221.689 252.447L222.368 220.411C222.378 219.742 221.851 219.195 221.192 219.185Z" fill="url(#paint33_linear_1_2617)"/>
<path d="M221.232 188.628L210.459 188.395L210.763 174.024L221.536 174.257L221.232 188.628Z" fill="url(#paint34_linear_1_2617)"/>
<path d="M221.08 164.356L211.645 164.153C210.773 164.133 210.054 164.822 210.043 165.693L209.881 173.325C209.861 174.196 210.55 174.916 211.422 174.926L220.857 175.129C221.729 175.149 222.448 174.46 222.459 173.588L222.621 165.957C222.631 165.095 221.942 164.376 221.08 164.356Z" fill="url(#paint35_linear_1_2617)"/>
<path d="M241.056 205.047C239.201 205.736 237.154 205.756 235.269 205.128C233.171 204.428 229.776 204.276 224.628 206.587C214.533 211.107 214.888 230.85 229.219 233.799C247.927 237.65 256.714 228.387 258.326 221.718C259.937 215.05 255.67 206.567 247.36 204.763C244.644 204.175 242.556 204.489 241.056 205.047Z" fill="url(#paint36_linear_1_2617)"/>
<path opacity="0.23" d="M228.124 208.067C229.766 208.178 232.837 208.878 230.019 212.465C227.212 216.063 224.851 221.992 226.057 225.843C227.253 229.694 219.449 224.931 219.003 219.823C218.557 214.705 223.016 207.743 228.124 208.067Z" fill="white"/>
<path d="M243.58 207.297C243.58 208.229 241.167 208.989 238.198 208.989C235.228 208.989 232.816 208.229 232.816 207.297C232.816 206.364 235.228 207.297 238.198 207.297C241.167 207.297 243.58 206.364 243.58 207.297Z" fill="url(#paint37_linear_1_2617)"/>
<path d="M236.799 207.074C236.799 207.074 235.087 199.959 243.215 195.409C251.343 190.858 251.16 190.443 251.596 192.855C252.042 195.267 254.495 203.8 245.586 207.469C236.678 211.128 236.799 207.074 236.799 207.074Z" fill="url(#paint38_linear_1_2617)"/>
<path opacity="0.23" d="M250.127 193.108C248.85 195.186 242.931 204.55 237.722 208.249C237.722 208.249 243.904 209.05 248.333 204.895C252.123 201.347 250.927 194.942 250.502 193.159C250.451 192.996 250.218 192.956 250.127 193.108Z" fill="white"/>
<path d="M237.823 208.381C237.996 209.547 238.989 208.259 238.523 205.939C238.056 203.618 237.58 198.104 234.225 199.067C230.881 200.04 237.114 203.456 237.823 208.381Z" fill="url(#paint39_linear_1_2617)"/>
<path d="M218.658 258.102L214.979 303.202L214.381 313.813C213.084 320.654 211.706 325.448 210.459 325.468C207.571 325.519 203.456 320.269 200.375 315.982C199.128 314.239 198.054 312.648 197.294 311.644C194.679 308.148 197.953 276.72 198.824 272.575C199.696 268.43 200.284 235.968 199.99 234.377C199.706 232.775 202.321 219.094 202.321 219.094L206.142 223.462L206.395 223.745L212.212 220.401L214.827 224.475C214.827 224.475 217.27 245.049 218.658 258.102Z" fill="url(#paint40_linear_1_2617)"/>
<path d="M309.972 315.597C310.074 319.154 308.229 322.326 305.391 324.09C304.023 324.941 302.422 325.448 300.699 325.529C274.055 326.634 212.486 333.008 210.469 325.458C208.148 316.722 217.168 277.145 216.874 272.2C216.58 267.254 214.827 224.475 214.827 224.475L219.327 225.59L220.655 225.924L230.262 221.556L238.705 226.218L249.762 221.556L258.204 226.502L266.646 223.006L273.629 226.502L282.365 221.556L287.889 225.924L296.909 221.556L302.148 226.502L307.682 221.556L307.966 226.218C307.966 226.218 309.324 290.463 309.972 315.597Z" fill="url(#paint41_linear_1_2617)"/>
<path d="M106.648 188C106.446 187.605 105.858 187.666 105.736 188.101C105.29 189.693 104.216 192.48 101.966 193.473C101.854 193.523 101.743 193.574 101.642 193.625C101.54 193.321 101.54 192.966 101.784 192.591C102.483 191.517 101.216 190.057 101.216 190.057C101.216 190.057 101.135 191.344 100.152 192.155C99.3106 192.855 98.9053 194.405 99.4829 195.682C100.699 200.415 102.523 206.678 95.4189 211.249C88.3144 215.82 78.3013 202.614 78.3013 202.614L83.2673 218.364C83.2673 218.364 90.9393 224.019 99.8579 216.063C108.777 208.107 102.868 196.534 102.868 196.534C102.868 196.534 109.668 193.777 106.648 188Z" fill="url(#paint42_linear_1_2617)"/>
<path d="M77.065 179.467C77.065 179.467 79.1223 170.234 68.5416 172.676C68.5416 172.676 63.4033 171.835 63.1398 176.68C63.1398 176.68 59.8257 178.858 62.2581 183.054C62.2581 183.054 52.4172 179.254 48.1302 187.878C43.8432 196.503 47.7856 201.246 51.9105 202.483C51.9105 202.483 48.566 204.165 50.147 207.955C51.728 211.746 59.7548 214.421 64.4877 209.81C64.4877 209.81 77.967 211.594 77.7035 202.067C77.7035 202.067 83.9769 198.013 77.3893 190.149C70.8118 182.284 77.065 179.467 77.065 179.467Z" fill="url(#paint43_linear_1_2617)"/>
<path d="M77.6427 200.881C75.5144 200.243 69.322 199.067 63.4337 204.499C62.4304 205.422 62.025 206.82 62.3797 208.128C63.9607 213.945 68.1363 231.154 64.4776 238.593C64.4776 238.593 70.9233 245.697 77.9569 239.971C77.9569 239.971 81.1088 226.218 85.2437 220.178C88.1018 216.013 80.6932 204.52 78.8183 201.753C78.5447 201.337 78.1291 201.023 77.6427 200.881Z" fill="url(#paint44_linear_1_2617)"/>
<path d="M71.7747 189.307C71.7747 189.307 68.6329 198.206 68.3896 202.128C68.3896 202.128 71.8659 203.709 75.1394 201.044C75.1394 201.044 75.484 192.155 75.9806 190.574L71.7747 189.307Z" fill="url(#paint45_linear_1_2617)"/>
<path d="M76.1428 177.186C76.1428 177.186 84.3621 188.699 79.4467 192.034C74.5313 195.378 68.6734 187.199 68.6734 187.199C68.6734 187.199 66.7681 180.896 68.7647 178.767C70.7612 176.629 76.1428 177.186 76.1428 177.186Z" fill="url(#paint46_linear_1_2617)"/>
<path d="M72.3321 174.43C72.3321 174.43 76.1124 175.321 76.6394 177.034C77.1664 178.747 71.2781 180.328 69.6363 180.409L68.3086 187.311C68.3086 187.311 64.3763 180.825 65.9371 177.075C67.4877 173.325 72.3321 174.43 72.3321 174.43Z" fill="url(#paint47_linear_1_2617)"/>
<path d="M70.2749 186.358C70.2749 186.358 67.0723 182.649 65.8055 185.071C64.5285 187.483 68.6837 189.307 70.1229 188.112L70.2749 186.358Z" fill="url(#paint48_linear_1_2617)"/>
<path d="M86.176 268.855C86.1558 269.484 87.2503 274.429 87.8483 277.075C88.0915 278.139 87.9192 279.253 87.3821 280.196L66.7173 314.979C66.4639 315.404 66.2815 315.85 66.17 316.327C65.795 317.958 65.0045 321.961 65.42 325.6L66.4842 327.819L61.8627 326.765L60.8594 314.35L62.1668 313.55C63.3019 312.86 64.1734 311.827 64.6802 310.6C66.545 306.06 71.1867 294.506 72.3826 288.882C73.7407 282.486 80.8451 277.287 80.8451 277.287L79.5986 274.338L86.176 268.855Z" fill="url(#paint49_linear_1_2617)"/>
<path d="M56.7246 322.499C56.7246 322.499 59.2178 318.536 59.5117 316.995C59.8056 315.455 60.6265 312.739 62.167 313.55C62.167 313.55 62.8967 321.029 62.6433 323.958C62.3899 326.887 65.9473 326.786 65.9473 326.786C65.9473 326.786 66.9303 326.927 67.6499 327.637C68.1465 328.133 67.7918 328.995 67.0925 329.035C65.927 329.106 64.0825 329.127 62.1366 328.752C61.4575 328.62 60.9508 328.042 60.9103 327.353L60.3934 318.739L57.2415 322.711L56.7246 322.499Z" fill="url(#paint50_linear_1_2617)"/>
<path d="M73.832 274.399C73.832 274.399 73.1022 305.503 73.0009 309.921C72.8995 314.34 73.7002 324.13 78.1291 327.059L76.2035 328.488C76.2035 328.488 73.7914 326.441 71.4401 322.499C68.795 318.07 67.9943 317.269 67.9943 317.269L68.876 315.475C69.2612 314.685 69.3726 313.803 69.2004 312.942C68.2477 308.31 65.0552 292.905 64.1836 289.581C63.16 285.669 63.0789 280.429 66.6565 276.051C70.2341 271.673 73.832 274.399 73.832 274.399Z" fill="url(#paint51_linear_1_2617)"/>
<path d="M69.7477 329.887C69.6058 329.887 69.4943 329.785 69.474 329.654C69.322 328.62 68.7139 324.455 68.2072 323.38C67.6295 322.144 65.7546 316.955 68.2072 316.519C68.2072 316.519 74.3083 325.438 75.4839 326.634C76.6596 327.84 78.1291 327.049 78.1291 327.049C78.1291 327.049 79.2743 327.384 80.1358 328.488C80.5412 329.015 80.1662 329.775 79.4973 329.785L75.3826 329.826C74.1867 329.836 73.1124 329.117 72.6665 328.002C71.9469 326.198 70.7003 323.542 69.2511 322.367L70.001 329.573C70.0314 329.745 69.9098 329.887 69.7477 329.887Z" fill="url(#paint52_linear_1_2617)"/>
<path d="M78.94 236.627C78.94 236.627 78.0177 239.576 79.4366 244.441L88.264 275.271C88.4058 275.757 88.1423 276.264 87.666 276.436C85.0208 277.389 76.3455 280.064 64.4979 279.243C63.8999 279.203 63.4033 278.777 63.2716 278.199C62.4912 274.683 59.8258 262.693 59.2785 260.231C57.1907 250.846 54.8496 240.721 65.1262 234.6C69.8491 236.617 74.2577 237.812 78.94 236.627Z" fill="url(#paint53_linear_1_2617)"/>
<path d="M62.5927 205.655C62.5927 205.655 52.5492 214.006 50.056 225.407C47.5629 236.819 64.7312 238.025 64.7312 238.025C64.7312 238.025 67.0622 235.421 69.829 236.353C72.5958 237.285 70.0418 231.813 66.8088 231.823C63.5758 231.833 65.0758 234.397 60.4949 232.319C56.0356 230.303 53.2789 224.049 64.6602 214.573C65.319 214.026 65.846 213.327 66.1602 212.526C68.3696 206.972 66.6163 203.314 62.5927 205.655Z" fill="url(#paint54_linear_1_2617)"/>
<defs>
<linearGradient id="paint0_linear_1_2617" x1="366.008" y1="410.581" x2="114.386" y2="98.0822" gradientUnits="userSpaceOnUse">
<stop stop-color="#B37CFF"/>
<stop offset="1" stop-color="#F895E7"/>
</linearGradient>
<linearGradient id="paint1_linear_1_2617" x1="154.601" y1="228.313" x2="280.289" y2="100.312" gradientUnits="userSpaceOnUse">
<stop stop-color="#A737D5"/>
<stop offset="1" stop-color="#EF497A"/>
</linearGradient>
<linearGradient id="paint2_linear_1_2617" x1="290.696" y1="111.108" x2="257.825" y2="202.775" gradientUnits="userSpaceOnUse">
<stop stop-color="#C32B78"/>
<stop offset="1" stop-color="#593092"/>
</linearGradient>
<linearGradient id="paint3_linear_1_2617" x1="113.552" y1="279.141" x2="216.64" y2="11.5794" gradientUnits="userSpaceOnUse">
<stop stop-color="#2B3582"/>
<stop offset="1" stop-color="#150E42"/>
</linearGradient>
<linearGradient id="paint4_linear_1_2617" x1="147.612" y1="218.376" x2="185.921" y2="-99.9807" gradientUnits="userSpaceOnUse">
<stop stop-color="#53D8FF"/>
<stop offset="1" stop-color="#3840F7"/>
</linearGradient>
<linearGradient id="paint5_linear_1_2617" x1="154.432" y1="15.7778" x2="153.763" y2="56.5866" gradientUnits="userSpaceOnUse">
<stop stop-color="#8D55D1"/>
<stop offset="0.9964" stop-color="#1C2873"/>
</linearGradient>
<linearGradient id="paint6_linear_1_2617" x1="79.3884" y1="112.811" x2="79.3884" y2="290.515" gradientUnits="userSpaceOnUse">
<stop stop-color="#C32B78"/>
<stop offset="1" stop-color="#593092"/>
</linearGradient>
<linearGradient id="paint7_linear_1_2617" x1="100.114" y1="82.5079" x2="101.364" y2="128.264" gradientUnits="userSpaceOnUse">
<stop stop-color="#FDF53F"/>
<stop offset="1" stop-color="#D93C65"/>
</linearGradient>
<linearGradient id="paint8_linear_1_2617" x1="120.776" y1="113.168" x2="120.776" y2="291.8" gradientUnits="userSpaceOnUse">
<stop stop-color="#C32B78"/>
<stop offset="1" stop-color="#593092"/>
</linearGradient>
<linearGradient id="paint9_linear_1_2617" x1="141.5" y1="82.517" x2="142.761" y2="128.668" gradientUnits="userSpaceOnUse">
<stop stop-color="#FDF53F"/>
<stop offset="1" stop-color="#D93C65"/>
</linearGradient>
<linearGradient id="paint10_linear_1_2617" x1="165.266" y1="113.168" x2="165.266" y2="291.8" gradientUnits="userSpaceOnUse">
<stop stop-color="#C32B78"/>
<stop offset="1" stop-color="#593092"/>
</linearGradient>
<linearGradient id="paint11_linear_1_2617" x1="185.989" y1="82.4413" x2="187.261" y2="128.987" gradientUnits="userSpaceOnUse">
<stop stop-color="#FDF53F"/>
<stop offset="1" stop-color="#D93C65"/>
</linearGradient>
<linearGradient id="paint12_linear_1_2617" x1="206.653" y1="113.168" x2="206.653" y2="291.8" gradientUnits="userSpaceOnUse">
<stop stop-color="#C32B78"/>
<stop offset="1" stop-color="#593092"/>
</linearGradient>
<linearGradient id="paint13_linear_1_2617" x1="227.376" y1="82.253" x2="228.652" y2="128.957" gradientUnits="userSpaceOnUse">
<stop stop-color="#FDF53F"/>
<stop offset="1" stop-color="#D93C65"/>
</linearGradient>
<linearGradient id="paint14_linear_1_2617" x1="70.0787" y1="89.2591" x2="69.8594" y2="142.563" gradientUnits="userSpaceOnUse">
<stop stop-color="#C32B78"/>
<stop offset="1" stop-color="#593092"/>
</linearGradient>
<linearGradient id="paint15_linear_1_2617" x1="116.778" y1="-20.529" x2="78.8134" y2="186.55" gradientUnits="userSpaceOnUse">
<stop stop-color="#FDF53F"/>
<stop offset="1" stop-color="#D93C65"/>
</linearGradient>
<linearGradient id="paint16_linear_1_2617" x1="117.588" y1="89.2604" x2="117.368" y2="142.562" gradientUnits="userSpaceOnUse">
<stop stop-color="#C32B78"/>
<stop offset="1" stop-color="#593092"/>
</linearGradient>
<linearGradient id="paint17_linear_1_2617" x1="162.74" y1="-12.1027" x2="124.776" y2="194.976" gradientUnits="userSpaceOnUse">
<stop stop-color="#FDF53F"/>
<stop offset="1" stop-color="#D93C65"/>
</linearGradient>
<linearGradient id="paint18_linear_1_2617" x1="165.096" y1="89.2617" x2="164.877" y2="142.56" gradientUnits="userSpaceOnUse">
<stop stop-color="#C32B78"/>
<stop offset="1" stop-color="#593092"/>
</linearGradient>
<linearGradient id="paint19_linear_1_2617" x1="208.703" y1="-3.67623" x2="170.738" y2="203.403" gradientUnits="userSpaceOnUse">
<stop stop-color="#FDF53F"/>
<stop offset="1" stop-color="#D93C65"/>
</linearGradient>
<linearGradient id="paint20_linear_1_2617" x1="212.953" y1="89.2597" x2="212.734" y2="142.565" gradientUnits="userSpaceOnUse">
<stop stop-color="#C32B78"/>
<stop offset="1" stop-color="#593092"/>
</linearGradient>
<linearGradient id="paint21_linear_1_2617" x1="254.838" y1="4.78185" x2="216.873" y2="211.861" gradientUnits="userSpaceOnUse">
<stop stop-color="#FDF53F"/>
<stop offset="1" stop-color="#D93C65"/>
</linearGradient>
<linearGradient id="paint22_linear_1_2617" x1="153.843" y1="229.689" x2="148.07" y2="327.836" gradientUnits="userSpaceOnUse">
<stop stop-color="#C32B78"/>
<stop offset="1" stop-color="#593092"/>
</linearGradient>
<linearGradient id="paint23_linear_1_2617" x1="273.906" y1="188.246" x2="297.821" y2="253.737" gradientUnits="userSpaceOnUse">
<stop stop-color="#41A362"/>
<stop offset="1" stop-color="#204F2E"/>
</linearGradient>
<linearGradient id="paint24_linear_1_2617" x1="274.541" y1="206.041" x2="291.936" y2="253.679" gradientUnits="userSpaceOnUse">
<stop stop-color="#41A362"/>
<stop offset="1" stop-color="#204F2E"/>
</linearGradient>
<linearGradient id="paint25_linear_1_2617" x1="244.157" y1="147.132" x2="238.42" y2="231.496" gradientUnits="userSpaceOnUse">
<stop stop-color="#53D8FF"/>
<stop offset="1" stop-color="#3840F7"/>
</linearGradient>
<linearGradient id="paint26_linear_1_2617" x1="220.295" y1="185.619" x2="261.408" y2="249.605" gradientUnits="userSpaceOnUse">
<stop stop-color="#53D8FF"/>
<stop offset="1" stop-color="#3840F7"/>
</linearGradient>
<linearGradient id="paint27_linear_1_2617" x1="292.5" y1="138.497" x2="225.541" y2="337.932" gradientUnits="userSpaceOnUse">
<stop stop-color="#FDF53F"/>
<stop offset="0.653" stop-color="#E57C58"/>
<stop offset="1" stop-color="#D93C65"/>
</linearGradient>
<linearGradient id="paint28_linear_1_2617" x1="304.914" y1="179.119" x2="231.573" y2="216.389" gradientUnits="userSpaceOnUse">
<stop stop-color="#FDF53F"/>
<stop offset="0.653" stop-color="#E57C58"/>
<stop offset="1" stop-color="#D93C65"/>
</linearGradient>
<linearGradient id="paint29_linear_1_2617" x1="307.171" y1="189.988" x2="233.83" y2="227.258" gradientUnits="userSpaceOnUse">
<stop stop-color="#FDF53F"/>
<stop offset="0.653" stop-color="#E57C58"/>
<stop offset="1" stop-color="#D93C65"/>
</linearGradient>
<linearGradient id="paint30_linear_1_2617" x1="290.628" y1="214.104" x2="235.998" y2="231.177" gradientUnits="userSpaceOnUse">
<stop stop-color="#FDF53F"/>
<stop offset="0.653" stop-color="#E57C58"/>
<stop offset="1" stop-color="#D93C65"/>
</linearGradient>
<linearGradient id="paint31_linear_1_2617" x1="292.202" y1="224.567" x2="237.572" y2="241.64" gradientUnits="userSpaceOnUse">
<stop stop-color="#FDF53F"/>
<stop offset="0.653" stop-color="#E57C58"/>
<stop offset="1" stop-color="#D93C65"/>
</linearGradient>
<linearGradient id="paint32_linear_1_2617" x1="248.466" y1="167.68" x2="121.295" y2="386.482" gradientUnits="userSpaceOnUse">
<stop stop-color="#2C759E"/>
<stop offset="1" stop-color="#051042"/>
</linearGradient>
<linearGradient id="paint33_linear_1_2617" x1="226.414" y1="216.347" x2="180.692" y2="295.014" gradientUnits="userSpaceOnUse">
<stop stop-color="#CE1567"/>
<stop offset="1" stop-color="#7A1DBC"/>
</linearGradient>
<linearGradient id="paint34_linear_1_2617" x1="220.471" y1="173.63" x2="211.526" y2="189.02" gradientUnits="userSpaceOnUse">
<stop stop-color="#CE1567"/>
<stop offset="1" stop-color="#7A1DBC"/>
</linearGradient>
<linearGradient id="paint35_linear_1_2617" x1="220.847" y1="161.731" x2="202.685" y2="192.981" gradientUnits="userSpaceOnUse">
<stop stop-color="#CE1567"/>
<stop offset="1" stop-color="#7A1DBC"/>
</linearGradient>
<linearGradient id="paint36_linear_1_2617" x1="209.423" y1="177.206" x2="235.54" y2="215.425" gradientUnits="userSpaceOnUse">
<stop stop-color="#FDF53F"/>
<stop offset="1" stop-color="#D93C65"/>
</linearGradient>
<linearGradient id="paint37_linear_1_2617" x1="241.77" y1="202.835" x2="236.491" y2="209.473" gradientUnits="userSpaceOnUse">
<stop stop-color="#FDF53F"/>
<stop offset="1" stop-color="#D93C65"/>
</linearGradient>
<linearGradient id="paint38_linear_1_2617" x1="236.644" y1="200.193" x2="252.234" y2="200.193" gradientUnits="userSpaceOnUse">
<stop stop-color="#152C19"/>
<stop offset="0.9964" stop-color="#397851"/>
</linearGradient>
<linearGradient id="paint39_linear_1_2617" x1="233.245" y1="203.891" x2="238.645" y2="203.891" gradientUnits="userSpaceOnUse">
<stop stop-color="#E40045"/>
<stop offset="1" stop-color="#5C0E16"/>
</linearGradient>
<linearGradient id="paint40_linear_1_2617" x1="297.084" y1="141.848" x2="165.476" y2="331.499" gradientUnits="userSpaceOnUse">
<stop stop-color="#FDF53F"/>
<stop offset="1" stop-color="#D93C65"/>
</linearGradient>
<linearGradient id="paint41_linear_1_2617" x1="320.422" y1="197.206" x2="169.189" y2="391.708" gradientUnits="userSpaceOnUse">
<stop stop-color="#FDF53F"/>
<stop offset="1" stop-color="#D93C65"/>
</linearGradient>
<linearGradient id="paint42_linear_1_2617" x1="109.685" y1="176.914" x2="82.9645" y2="219.737" gradientUnits="userSpaceOnUse">
<stop stop-color="#F9B776"/>
<stop offset="1" stop-color="#F47960"/>
</linearGradient>
<linearGradient id="paint43_linear_1_2617" x1="499.731" y1="712.816" x2="558.566" y2="783.116" gradientUnits="userSpaceOnUse">
<stop stop-color="#C32B78"/>
<stop offset="1" stop-color="#593092"/>
</linearGradient>
<linearGradient id="paint44_linear_1_2617" x1="69.5414" y1="225.31" x2="49.5839" y2="281.089" gradientUnits="userSpaceOnUse">
<stop stop-color="#FDF53F"/>
<stop offset="1" stop-color="#D93C65"/>
</linearGradient>
<linearGradient id="paint45_linear_1_2617" x1="76.7759" y1="206.536" x2="71.7663" y2="195.411" gradientUnits="userSpaceOnUse">
<stop stop-color="#F9B776"/>
<stop offset="1" stop-color="#F47960"/>
</linearGradient>
<linearGradient id="paint46_linear_1_2617" x1="77.0337" y1="179.499" x2="66.8672" y2="201.51" gradientUnits="userSpaceOnUse">
<stop stop-color="#F9B776"/>
<stop offset="1" stop-color="#F47960"/>
</linearGradient>
<linearGradient id="paint47_linear_1_2617" x1="509.688" y1="704.482" x2="568.523" y2="774.782" gradientUnits="userSpaceOnUse">
<stop stop-color="#C32B78"/>
<stop offset="1" stop-color="#593092"/>
</linearGradient>
<linearGradient id="paint48_linear_1_2617" x1="72.2508" y1="177.289" x2="62.0841" y2="199.3" gradientUnits="userSpaceOnUse">
<stop stop-color="#F9B776"/>
<stop offset="1" stop-color="#F47960"/>
</linearGradient>
<linearGradient id="paint49_linear_1_2617" x1="48.6646" y1="345.085" x2="85.9881" y2="277.717" gradientUnits="userSpaceOnUse">
<stop stop-color="#F9B776"/>
<stop offset="1" stop-color="#F47960"/>
</linearGradient>
<linearGradient id="paint50_linear_1_2617" x1="56.7148" y1="321.315" x2="67.8106" y2="321.21" gradientUnits="userSpaceOnUse">
<stop stop-color="#2B3582"/>
<stop offset="1" stop-color="#150E42"/>
</linearGradient>
<linearGradient id="paint51_linear_1_2617" x1="91.2118" y1="295.106" x2="34.6135" y2="313.798" gradientUnits="userSpaceOnUse">
<stop stop-color="#F9B776"/>
<stop offset="1" stop-color="#F47960"/>
</linearGradient>
<linearGradient id="paint52_linear_1_2617" x1="67.0209" y1="323.221" x2="80.2482" y2="323.096" gradientUnits="userSpaceOnUse">
<stop stop-color="#2B3582"/>
<stop offset="1" stop-color="#150E42"/>
</linearGradient>
<linearGradient id="paint53_linear_1_2617" x1="110.627" y1="205.41" x2="53.3049" y2="287.299" gradientUnits="userSpaceOnUse">
<stop stop-color="#53D8FF"/>
<stop offset="1" stop-color="#3840F7"/>
</linearGradient>
<linearGradient id="paint54_linear_1_2617" x1="52.2493" y1="241.15" x2="105.747" y2="161.829" gradientUnits="userSpaceOnUse">
<stop stop-color="#F9B776"/>
<stop offset="1" stop-color="#F47960"/>
</linearGradient>
</defs>
</svg>
