<svg width="287" height="279" viewBox="0 0 287 279" fill="none" xmlns="http://www.w3.org/2000/svg">
<path d="M147.947 0.0929595C74.7567 -2.07011 11.3504 51.0364 1.76818 120.73C-8.70352 196.923 48.9414 265.484 119.868 276.461C208.089 290.117 293.662 211.104 285.98 125.389C280.198 60.8106 222.351 2.28636 147.947 0.0929595Z" fill="#F4F7FA"/>
<path d="M259.447 214.53V186.006L21.1245 185.672V213.964L72.8664 226.185L259.447 214.53Z" fill="#D8DEE8"/>
<path d="M258.911 120.699V124.268L274.78 124.419L271.273 120.75L258.911 120.699Z" fill="#D8DEE8"/>
<path d="M72.361 197.367L21.1245 186.34V120.78L72.361 121.276V197.367Z" fill="url(#paint0_linear_1_193)"/>
<path d="M271.273 120.568L259.447 120.801V186.683L140.71 193.466L91.5255 196.276L72.3611 197.367V121.286L154.8 97.7952L203.935 50.3491L271.273 120.568ZM237.583 180.892V115.615L165.212 115.494V184.611L237.583 180.892Z" fill="url(#paint1_linear_1_193)"/>
<g opacity="0.2">
<path opacity="0.2" d="M272.455 120.821L205.815 50.9959L203.773 48.8531L201.751 50.8039L152.89 97.7648L71.0673 120.811L59.8477 123.974V125.703H72.3611V124.581L154.507 101.444L203.935 53.998L267.786 120.821H272.455Z" fill="#D8DEE8"/>
</g>
<path d="M203.773 45.2042L205.815 47.3369L273.264 117.95L275.003 119.77V124.389L274.78 124.419L271.293 120.77L203.935 50.349L154.507 97.785L73.0687 121.933L59.8477 125.602V120.315L71.0673 117.162L152.89 94.1159L201.751 47.1449L203.773 45.2042Z" fill="white"/>
<path d="M236.846 116.525V180.022L166.02 183.61V116.454L236.846 116.525ZM233.086 173.968V120.659L216.064 120.699V174.736L233.086 173.968ZM211.445 174.948V120.71L193.817 120.75V175.747L211.445 174.948ZM189.026 175.969V120.76L170.761 120.801V176.798L189.026 175.969Z" fill="white"/>
<path d="M164.484 185.218V114.908L238.382 114.978V181.478L164.484 185.218ZM167.567 118.001V181.983L235.309 178.557V118.061L167.567 118.001ZM169.224 178.415V119.274L190.572 119.224V177.445L169.224 178.415ZM172.307 122.347V175.191L187.489 174.503V122.317L172.307 122.347ZM192.28 177.364V119.214L212.981 119.163V176.414L192.28 177.364ZM195.363 122.296V174.15L209.908 173.482V122.256L195.363 122.296ZM214.528 176.353V119.163L234.632 119.113V175.433L214.528 176.353ZM217.611 122.236V173.129L231.549 172.492V122.206L217.611 122.236Z" fill="white"/>
<path d="M203.773 45.2042L201.751 47.1449L152.89 94.1159L93.6482 97.2089L138.214 56.1206L140.063 54.4124L203.773 45.2042Z" fill="#97A6B7"/>
<path d="M110.205 154.793L135.292 154.47L135.272 209.962L110.205 211.387V154.793Z" fill="#F4F7FA"/>
<path d="M105.575 208.688V156.794L133.443 156.461V206.575L105.575 208.688Z" fill="#97A6B7"/>
<path d="M91.5256 212.832V148.193L140.619 147.687V209.658L135.272 209.962V154.581L110.205 154.965V211.771L91.5256 212.832Z" fill="#D8DEE8"/>
<path d="M152.89 94.1159L71.0673 117.162L59.8477 120.315L9.96558 119.951L19.9723 117.232L93.6482 97.2089L152.89 94.1159Z" fill="#97A6B7"/>
<path d="M59.8476 125.602L9.96558 124.5V119.951L59.8476 120.315V125.602Z" fill="white"/>
<path d="M232.762 121.073V173.573L216.407 174.311V121.114L232.762 121.073Z" fill="#D8DEE8"/>
<path d="M188.682 121.185V175.565L171.125 176.363V121.235L188.682 121.185Z" fill="#D8DEE8"/>
<path d="M211.111 121.124V174.554L194.17 175.322V121.175L211.111 121.124Z" fill="#D8DEE8"/>
<path d="M91.5256 212.772L140.619 209.315L152.092 222.152L91.5256 224.921V212.772Z" fill="#F4F7FA"/>
<path d="M88.1294 35.4804C88.1294 47.5795 71.1685 69.6752 63.4966 79.0451C61.5863 81.38 58.0182 81.38 56.1078 79.0451C48.436 69.6651 31.4751 47.5795 31.4751 35.4804C31.4751 19.8335 44.1604 7.15833 59.7972 7.15833C75.4441 7.15833 88.1294 19.8335 88.1294 35.4804Z" fill="url(#paint2_linear_1_193)"/>
<path d="M59.7973 51.2789C68.5226 51.2789 75.5958 44.2057 75.5958 35.4804C75.5958 26.7551 68.5226 19.6819 59.7973 19.6819C51.072 19.6819 43.9988 26.7551 43.9988 35.4804C43.9988 44.2057 51.072 51.2789 59.7973 51.2789Z" fill="white"/>
<g opacity="0.3">
<path opacity="0.3" d="M59.6759 67.4219C61.4751 55.5856 69.2884 51.7952 67.9441 40.6261C66.3976 27.7386 54.9859 24.3019 54.713 12.8397C54.6725 10.9899 54.9151 9.21097 55.3902 7.50275C41.8457 9.61528 31.4751 21.3404 31.4751 35.4812C31.4751 47.5802 48.436 69.6759 56.1078 79.0459C57.2298 80.4205 58.9279 80.9866 60.525 80.744C59.1503 75.5587 59.1099 71.1315 59.6759 67.4219Z" fill="url(#paint3_linear_1_193)"/>
</g>
<path d="M59.7972 98.6239C62.9959 98.6239 65.5889 96.0309 65.5889 92.8322C65.5889 89.6335 62.9959 87.0404 59.7972 87.0404C56.5984 87.0404 54.0054 89.6335 54.0054 92.8322C54.0054 96.0309 56.5984 98.6239 59.7972 98.6239Z" fill="url(#paint4_linear_1_193)"/>
<path d="M76.0809 245.359C76.0809 245.359 75.8989 246.825 76.0202 247.32C76.1415 247.815 80.4171 248.169 81.8726 247.997C83.3282 247.825 81.0034 246.34 80.0836 246.067C79.1536 245.794 76.0809 245.359 76.0809 245.359Z" fill="url(#paint5_linear_1_193)"/>
<path d="M78.2336 242.903L77.7788 245.854C77.7788 245.854 76.6265 246.37 76.0807 245.864L76.02 242.782L78.2336 242.903Z" fill="url(#paint6_linear_1_193)"/>
<path d="M54.1266 242.772C54.1266 242.772 55.0363 243.449 54.7937 244.247C54.5511 245.056 52.4386 248.28 50.9224 249.2C49.4163 250.12 49.8914 248.21 50.3261 247.017C50.7607 245.824 51.8827 243.206 52.3274 242.772C52.7721 242.337 54.1266 242.772 54.1266 242.772Z" fill="url(#paint7_linear_1_193)"/>
<path d="M55.7641 239.537C55.3294 240.76 54.9049 241.761 54.5714 242.509C53.8436 244.146 53.4393 244.763 52.9945 245.299C52.6003 245.763 51.6704 246.754 51.4177 246.592C51.165 246.42 51.8423 245.218 53.1563 241.69C53.3483 241.174 53.9548 239.547 53.9548 239.547H55.7641V239.537Z" fill="url(#paint8_linear_1_193)"/>
<path d="M87.1891 188.462C87.5025 191.535 87.8057 196.306 87.3509 202.088C86.7646 209.628 85.2585 214.399 83.3684 222.435C82.2161 227.347 80.6595 234.574 79.2444 243.621C78.9209 243.813 77.9607 244.298 76.7174 244.116C76.02 244.015 75.5045 243.742 75.2013 243.54C71.5018 232.239 72.5934 225.245 74.3825 220.878C75.1406 219.018 76.0604 217.552 76.5557 214.692C77.2127 210.912 76.4041 208.799 75.2518 200.036C74.4331 193.789 74.5746 192.829 75.1204 191.889C77.2936 188.169 83.9647 188.24 87.1891 188.462Z" fill="url(#paint9_linear_1_193)"/>
<path d="M110.174 156.855C110.174 156.855 110.69 154.823 111.559 154.288C112.418 153.752 113.641 153.176 113.924 152.943C114.207 152.711 114.531 153.408 113.722 153.954C112.914 154.49 112.914 154.49 112.914 154.49C112.893 154.641 112.924 154.753 112.944 154.833C113.075 155.218 113.51 155.48 114.046 155.531C116.118 155.966 116.916 155.986 117.24 155.895C117.29 155.885 117.462 155.824 117.543 155.905C117.664 156.036 117.442 156.441 117.351 156.582C116.795 157.441 114.854 157.805 113.399 157.138C112.863 156.895 112.661 156.633 112.277 156.693C111.66 156.794 111.286 157.613 111.064 158.28L110.174 156.855Z" fill="url(#paint10_linear_1_193)"/>
<path d="M74.4636 189.776C72.1994 201.471 69.9757 207.616 68.2978 211.094C67.8834 211.953 66.4986 214.712 65.1947 218.674C64.0323 222.182 63.5572 224.759 63.3046 225.902C62.5263 229.49 60.5957 234.726 55.4002 241.589C55.3396 241.629 54.4501 242.125 53.601 241.68C53.1765 241.457 52.9542 241.094 52.8733 240.922C53.5505 234.362 54.3288 228.843 55.006 224.588C55.1475 223.698 55.7742 219.786 56.7547 214.631C57.1388 212.61 57.7048 209.648 58.3719 206.616C59.2109 202.835 60.4946 197.681 62.4757 191.515C66.4683 190.928 70.4609 190.352 74.4636 189.776Z" fill="url(#paint11_linear_1_193)"/>
<path d="M111.842 157.492C111.256 156.966 110.67 156.441 110.073 155.925C109.861 156.148 106.717 159.21 102.321 158.28C99.2983 157.644 97.5497 155.157 96.4378 153.57C93.082 148.809 95.0935 145.312 91.4749 142.077C90.4742 141.178 88.5032 140.086 87.2195 140.42C84.1568 141.208 82.3879 150.437 85.3596 157.694C85.956 159.16 89.2613 167.226 96.741 168.095C102.775 168.803 109.184 164.537 111.842 157.492Z" fill="url(#paint12_linear_1_193)"/>
<path d="M76.3941 143.513C77.6778 142.33 80.134 140.955 81.3671 137.772C81.7411 136.811 83.0551 133.425 81.1144 130.827C79.9621 129.291 77.8294 128.24 75.9392 128.614C74.3321 128.927 74.0794 130.049 71.3402 132.303C70.2789 133.183 68.5605 134.598 66.6603 135.376C63.3954 136.72 61.4345 135.457 58.1596 135.598C54.1367 135.78 49.4568 138.024 47.2027 141.289C43.2 147.091 48.9918 152.964 44.6151 159.756C43.1798 161.98 42.4723 161.484 39.076 165.79C35.6697 170.106 33.9716 172.259 34.2748 174.908C34.6993 178.577 38.6414 182.074 42.3611 182.317C45.9999 182.549 48.3045 179.689 50.1542 180.942C51.4682 181.831 50.7202 183.56 52.1151 185.642C53.9143 188.321 57.4621 188.856 58.0383 188.947C63.355 189.746 70.5113 183.519 73.5538 176.141C79.0423 162.839 69.4096 149.972 76.3941 143.513Z" fill="url(#paint13_linear_1_193)"/>
<path opacity="0.3" d="M74.3825 220.888C75.1406 219.028 76.0604 217.563 76.5557 214.702C77.2127 210.922 76.4041 208.809 75.2518 200.046C74.4331 193.799 74.5746 192.839 75.1204 191.899C76.303 189.867 78.8199 188.958 81.3771 188.594C81.3468 188.725 81.3064 188.856 81.2761 188.988C79.9317 195.123 85.0665 198.873 82.7518 205.615C81.6096 208.941 79.7902 209.709 79.3657 213.56C78.9715 217.179 80.4068 217.927 80.1036 221.212C79.6386 226.124 76.1514 227.317 75.2417 231.077C74.6554 233.523 75.1507 237.091 79.4566 242.266C79.3859 242.711 79.3151 243.156 79.2444 243.611C78.9209 243.803 77.9607 244.288 76.7174 244.106C76.02 244.005 75.5045 243.732 75.2013 243.53C71.5018 232.249 72.5934 225.255 74.3825 220.888Z" fill="url(#paint14_linear_1_193)"/>
<path opacity="0.15" d="M87.8967 149.254C93.4257 153.621 92.8091 162 96.2154 162.425C97.2565 162.556 97.1959 161.757 99.6723 160.949C103.291 159.766 104.999 160.959 107.546 160.069C108.598 159.695 109.972 158.907 111.327 157.037C111.498 157.189 111.67 157.34 111.842 157.492C109.184 164.537 102.775 168.792 96.7309 168.085C89.2512 167.216 85.9459 159.15 85.3495 157.684C83.9546 154.278 83.611 150.447 83.9446 147.243C85.2181 147.627 86.6029 148.233 87.8967 149.254Z" fill="url(#paint15_linear_1_193)"/>
<path d="M91.9097 142.633C91.566 142.108 90.4946 140.652 85.9157 139.571C83.6213 139.035 79.3861 138.105 73.938 139.267C66.4481 140.854 61.7884 145.352 60.0296 147.232C61.4649 148.172 65.4373 151.023 67.3982 156.441C68.0047 158.129 69.814 163.89 67.2365 169.288C65.7506 172.401 63.1125 174.736 61.1213 176.505C58.1192 179.163 56.5727 179.577 55.562 181.953C54.4703 184.551 55.5721 185.814 54.2075 187.593C52.752 189.503 51.0337 188.614 48.5572 190.544C46.0202 192.526 46.9198 194.143 44.6152 196.336C41.2594 199.51 36.8221 198.479 36.6098 199.904C36.4279 201.137 39.5916 202.795 42.2702 203.472C47.5869 204.807 52.2163 202.563 53.601 201.875C57.4218 199.955 56.7547 198.722 59.6657 197.256C64.5377 194.81 67.8632 197.529 78.9616 197.812C84.9757 197.964 88.0081 197.994 89.6758 195.962C91.192 194.102 90.3935 192.071 89.4838 183.287C89.1907 180.356 88.5741 174.22 88.5741 170.713C88.5741 168.641 89.2917 165.265 90.7271 158.513C90.8079 158.119 91.5862 154.46 92.2129 149.588C92.789 145.211 92.7082 143.867 91.9097 142.633Z" fill="url(#paint16_linear_1_193)"/>
<g opacity="0.15">
<path opacity="0.15" d="M44.6152 196.346C46.9197 194.163 46.0202 192.536 48.5572 190.555C51.0336 188.624 52.7418 189.513 54.2075 187.603C55.572 185.824 54.4602 184.561 55.5619 181.963C56.5626 179.577 58.1192 179.173 61.1212 176.515C63.1226 174.736 65.7506 172.401 67.2365 169.298C69.8241 163.9 68.0148 158.139 67.3982 156.451C65.4373 151.033 61.4649 148.172 60.0296 147.243C60.1711 147.091 60.3328 146.919 60.5047 146.747C69.9757 148.051 75.4946 153.519 76.1819 155.147C77.7587 158.897 75.2621 160.272 75.2014 171.077C75.1711 176.242 75.727 178.284 74.0491 180.437C72.1287 182.903 69.9251 182.135 67.1556 185.359C65.0228 187.836 65.3665 189.402 63.3753 190.453C61.2324 191.575 59.878 190.271 57.4622 190.787C53.4292 191.646 52.57 196.296 49.9117 198.833C47.9002 200.753 44.1704 202.098 36.8321 200.652C36.6603 200.41 36.5794 200.167 36.6098 199.935C36.822 198.489 41.2695 199.52 44.6152 196.346Z" fill="url(#paint17_linear_1_193)"/>
</g>
<path d="M77.0108 133.405C77.0108 133.405 76.5357 137.226 75.1206 138.095C73.7156 138.974 71.4313 140.116 71.1786 140.42C70.9259 140.733 79.9117 141.693 84.3592 139.449C82.8935 139.146 82.4892 139.035 82.4892 139.035C82.095 138.924 81.347 138.712 80.5991 138.287C80.0937 137.994 79.2749 137.438 78.5269 136.367L78.5472 134.254L77.0108 133.405Z" fill="url(#paint18_linear_1_193)"/>
<path d="M76.7984 134.759C76.7984 134.759 77.7182 136.023 79.1535 135.497C80.4473 135.022 79.669 131.697 78.6481 131.313C78.3044 131.181 77.6777 131.242 77.2633 131.505C76.9702 131.687 76.1818 132.667 76.6366 133.759C76.3132 133.668 76.0201 133.749 75.9493 133.91C75.8583 134.112 76.1312 134.395 76.1919 134.456C76.4143 134.678 76.6771 134.739 76.7984 134.759Z" fill="url(#paint19_linear_1_193)"/>
<path d="M75.5146 157.916L82.8125 155.339C82.9439 155.298 83.055 155.197 83.1056 155.056L84.3185 151.761C84.4398 151.417 84.1467 151.073 83.7929 151.154L76.9297 152.64C76.768 152.67 76.4243 152.772 76.3131 153.065L74.9587 157.077C74.8374 157.451 75.1507 158.038 75.5146 157.916Z" fill="url(#paint20_linear_1_193)"/>
<path d="M75.626 157.958L82.6813 155.704C82.8127 155.663 82.9239 155.562 82.9744 155.421L84.1873 152.125C84.3086 151.782 84.0155 151.438 83.6617 151.519L76.7985 153.005C76.6368 153.035 76.5155 153.156 76.465 153.308L75.06 157.371C74.9286 157.735 75.2621 158.079 75.626 157.958Z" fill="url(#paint21_linear_1_193)"/>
<path d="M72.0479 157.815C72.0479 157.815 73.281 155.359 74.0189 154.864C74.7567 154.369 78.0721 154.156 79.002 154.267C79.9218 154.379 79.9926 155.066 79.2244 155.581C78.4562 156.097 76.2628 156.683 75.8787 157.128C75.4946 157.573 72.7857 158.806 72.0479 157.815Z" fill="url(#paint22_linear_1_193)"/>
<path d="M73.3314 157.987C74.3523 160.12 69.7532 165.123 64.6184 167.519C63.5773 168.004 56.0672 171.511 52.7013 168.196C49.9115 165.467 51.6703 159.766 52.297 157.734C55.3799 147.748 64.9722 142.633 69.0052 140.784C72.0578 148.294 70.299 151.66 69.6117 152.711C68.8839 153.813 66.8623 156.117 64.7195 158.159C63.2033 159.594 62.2633 160.292 62.3947 160.514C62.5564 160.787 64.3354 160.261 71.239 156.845C72.0274 156.966 72.9776 157.259 73.3314 157.987Z" fill="url(#paint23_linear_1_193)"/>
<path d="M226.879 59.5977C217.995 88.5667 213.79 109.045 205.966 106.639C205.34 106.447 204.764 106.104 204.248 105.619C202.257 103.779 201.094 99.8874 200.741 94.5303C200.589 92.3571 200.579 89.9413 200.69 87.3133C200.832 84.2607 201.145 80.9252 201.63 77.3773C201.954 75.0323 202.257 72.566 202.732 70.0491C203.52 65.8544 204.642 61.4777 205.572 56.8483L205.582 56.8281C205.582 56.8281 205.582 56.8281 205.582 56.818L207.735 49.7931C208.877 46.0835 209.989 42.4548 211.495 39.0889C211.505 39.0586 211.516 39.0283 211.536 39.008C211.697 38.4925 211.869 37.977 212.051 37.4716C212.071 37.4211 212.092 37.3605 212.112 37.3099C212.425 36.4305 212.779 35.5815 213.133 34.7425C213.173 34.6314 213.224 34.5303 213.264 34.4292C213.567 33.7115 213.881 32.9939 214.184 32.2863C214.204 32.2358 214.224 32.1954 214.245 32.1448C215.983 27.9804 217.793 24.1192 219.622 20.6421C220.845 18.3173 222.078 16.1644 223.301 14.2136C228.82 5.38944 234.218 0.537689 238.16 1.74052C238.271 1.77084 238.382 1.81127 238.493 1.86181C245.68 4.90426 235.633 31.0431 226.879 59.5977Z" fill="url(#paint24_linear_1_193)"/>
<path d="M229.659 20.0155C229.063 21.9562 225.404 22.5626 221.482 21.3598C220.825 21.1576 220.188 20.915 219.612 20.6421C220.835 18.3173 222.068 16.1644 223.291 14.2136C223.412 14.2439 223.534 14.2843 223.645 14.3146C227.567 15.5175 230.255 18.0646 229.659 20.0155Z" fill="url(#paint25_linear_1_193)"/>
<path d="M220.309 37.9467C219.713 39.8874 216.064 40.4535 212.142 39.2607C211.91 39.19 211.657 39.1698 211.435 39.0889C212.314 36.7237 213.254 34.4292 214.154 32.2964L214.265 32.3268C218.187 33.5195 220.906 35.9959 220.309 37.9467Z" fill="url(#paint26_linear_1_193)"/>
<path d="M212.152 55.1199C211.637 56.7978 208.847 57.475 205.572 56.8584L205.582 56.8382C205.582 56.8382 205.582 56.8382 205.582 56.8281L207.685 49.9851C210.727 51.3092 212.668 53.442 212.152 55.1199Z" fill="url(#paint27_linear_1_193)"/>
<path d="M208.716 75.7398C208.18 77.4986 205.117 78.1657 201.62 77.3773C201.943 75.0323 202.247 72.566 202.722 70.0491C206.633 71.2621 209.312 73.7991 208.716 75.7398Z" fill="url(#paint28_linear_1_193)"/>
<path d="M205.471 92.5795C205.057 93.9339 203.156 94.6313 200.72 94.5303C200.569 92.3571 200.559 89.9413 200.67 87.3133C203.925 88.6273 206.007 90.8409 205.471 92.5795Z" fill="url(#paint29_linear_1_193)"/>
<path opacity="0.4" d="M226.879 59.5976C217.995 88.5667 213.79 109.045 205.966 106.639C205.34 106.447 204.764 106.104 204.248 105.619C205.602 103.385 207.685 100.645 209.989 97.3706C214.649 90.7297 221.098 72.4245 223.21 57.4952C225.323 42.566 233.035 20.723 236.906 9.62459C238.17 5.98578 238.544 3.52958 238.473 1.85168C245.68 4.90425 235.633 31.0431 226.879 59.5976Z" fill="url(#paint30_linear_1_193)"/>
<path d="M214.285 67.9871C214.093 69.0283 214.204 70.1098 214.346 71.1509C214.487 72.1718 214.76 73.1624 215.639 73.7991C215.831 73.9407 216.034 74.062 216.246 74.1529C216.488 74.254 216.782 74.2843 216.984 74.4359C217.327 74.6886 217.479 75.2244 217.752 75.5579C218.419 76.3564 219.329 76.8113 220.35 76.9124C220.592 76.9326 220.855 76.9427 221.077 77.0539C221.33 77.1752 221.532 77.4076 221.745 77.5795C222.159 77.9029 222.634 78.0545 223.16 78.0646C223.655 78.0646 224.14 77.9434 224.605 77.8018C225.161 77.6401 225.707 77.4683 226.263 77.3066C226.809 77.1448 227.364 76.9831 227.91 76.8113C228.365 76.6597 228.81 76.4676 229.154 76.1442C229.528 75.7904 229.689 75.3153 229.871 74.8403C229.962 74.6179 230.053 74.3652 230.235 74.2035C230.417 74.0417 230.67 73.9811 230.902 73.9306C231.842 73.6981 232.732 73.3342 233.409 72.6064C233.995 71.9696 234.298 71.0801 234.167 70.221C234.157 70.1401 234.137 70.0694 234.116 69.9986C234.207 69.9481 234.288 69.8672 234.319 69.7661C234.885 68.0377 234.268 66.0161 232.752 64.9649C232.327 64.6718 231.883 64.5303 231.418 64.3281C230.973 64.1361 230.761 63.6913 230.437 63.3477C229.75 62.5997 228.86 62.6805 227.951 62.8119C227.536 62.8726 227.132 62.913 226.738 62.7513C226.283 62.5592 225.879 62.256 225.424 62.0539C224.959 61.8517 224.464 61.7708 223.968 61.8618C223.523 61.9427 223.089 62.1549 222.644 62.1751C222.139 62.2055 221.643 61.9528 221.158 61.8517C220.714 61.7607 220.238 61.7405 219.784 61.7708C218.833 61.8416 217.853 62.1852 217.115 62.8018C216.721 63.1354 216.367 63.5397 216.185 64.035C216.094 64.2877 216.054 64.5303 216.023 64.7931C216.003 65.0256 215.983 65.2479 215.831 65.4299C215.67 65.632 215.447 65.7836 215.265 65.9656C215.083 66.1475 214.932 66.3497 214.8 66.5619C214.548 66.9865 214.386 67.4818 214.285 67.9871Z" fill="url(#paint31_linear_1_193)"/>
<path opacity="0.4" d="M215.377 65.8645C216.246 67.502 217.297 69.0586 218.146 70.7062C218.712 71.6563 219.662 72.2628 220.562 72.8187C221.563 73.3645 222.786 73.415 223.857 72.94C225.96 72.1617 227.263 70.2412 229.629 69.9784C231.195 69.8369 232.732 69.8571 234.197 70.3018C234.299 71.1307 233.995 71.9797 233.429 72.5862C232.752 73.314 231.873 73.6778 230.922 73.9103C230.69 73.971 230.437 74.0316 230.255 74.1832C230.063 74.345 229.972 74.5977 229.892 74.82C229.71 75.2951 229.558 75.7601 229.174 76.1239C228.82 76.4575 228.375 76.6495 227.931 76.7911C227.385 76.973 226.829 77.1246 226.283 77.2863C225.727 77.4481 225.181 77.6199 224.625 77.7816C224.16 77.9231 223.665 78.0444 223.18 78.0444C222.654 78.0444 222.189 77.8928 221.765 77.5592C221.542 77.3874 221.35 77.1549 221.098 77.0336C220.875 76.9225 220.613 76.9225 220.37 76.8921C219.349 76.7911 218.429 76.3261 217.772 75.5377C217.499 75.2041 217.348 74.6684 217.004 74.4157C216.792 74.2641 216.499 74.2338 216.266 74.1327C216.044 74.0417 215.842 73.9204 215.66 73.7789C214.78 73.1421 214.518 72.1516 214.366 71.1307C214.214 70.0896 214.113 69.008 214.305 67.9669C214.396 67.4615 214.568 66.9764 214.841 66.5417C214.972 66.3193 215.124 66.1172 215.306 65.9454C215.316 65.9252 215.346 65.8948 215.377 65.8645Z" fill="url(#paint32_linear_1_193)"/>
<path d="M227.951 54.938C227.071 53.9171 225.828 53.159 224.504 52.9467C224.858 51.6125 224.383 50.0862 223.17 49.2372C221.593 48.1253 219.733 48.3174 218.075 49.0249C216.681 48.6004 215.114 48.661 213.79 49.2473C210.858 50.531 209.595 53.8766 210.484 56.7978C209.211 57.1718 208.16 58.1725 207.776 59.4966C207.28 61.1745 207.978 62.8726 209.292 63.9541C209.959 64.5 210.727 64.9144 211.455 65.3894C212.243 65.9151 212.749 66.5619 213.345 67.2796C214.517 68.6846 216.296 69.4932 218.146 69.3921C219.784 69.3012 221.259 68.4622 222.27 67.219C223.261 67.785 224.464 67.9063 225.596 67.6536C227.213 67.2998 228.507 66.2284 229.245 64.7628C230.751 61.7911 230.114 57.4346 227.951 54.938Z" fill="url(#paint33_linear_1_193)"/>
<path d="M241.485 70.039C242.354 69.9177 244.78 69.2102 246.054 67.9366C247.398 66.6024 247.166 63.8935 247.712 63.2061C248.257 62.5188 249.865 62.0336 250.916 60.7499C252.432 58.88 252.937 56.3025 251.836 54.7257C251.361 54.0484 249.986 52.9568 250.168 51.9561C250.38 51.4608 251.937 50.5511 251.724 47.5188C251.553 45.0929 250.158 41.4137 245.356 40.4332C244.416 39.8874 244.538 37.785 242.082 36.7641C239.625 35.7533 238.079 37.3099 237.189 36.7944C236.3 36.2789 234.137 34.9649 231.943 34.9042C229.386 34.8335 226.94 36.0161 225.07 38.068C224.605 38.5835 224.211 39.1394 223.877 39.7156C223.736 39.9582 223.695 40.0491 223.412 40.0592C223.079 40.0693 222.765 40.0693 222.432 40.1098C221.249 40.2311 219.865 40.4838 218.793 41.1509C216.63 42.4952 215.367 44.9817 215.225 47.2257C215.084 49.3483 217.216 53.159 216.994 53.7957C216.772 54.4325 214.568 56.5046 214.669 59.0518C214.801 62.2863 216.398 64.9649 219.329 66.38C220.623 67.0067 224.191 67.8254 225.131 68.4622C226.071 69.099 225.889 72.1111 227.365 73.4554C228.972 74.911 230.73 74.82 233.187 74.1125C234.521 73.7284 235.319 73.9103 236.421 72.9905C237.695 73.3847 239.363 72.6771 240.424 71.636C240.909 71.161 240.616 70.1603 241.485 70.039Z" fill="url(#paint34_linear_1_193)"/>
<g opacity="0.4">
<path opacity="0.4" d="M245.144 43.6778C241.758 43.1927 239.322 46.0127 236.179 46.3968C233.035 46.791 232.287 42.6671 230.559 40.5545C229.952 39.7661 229.144 38.9878 228.335 38.7958C227.082 38.4622 225.778 38.442 224.524 38.725C224.696 38.4925 224.878 38.2803 225.07 38.0579C226.94 36.006 229.386 34.8335 231.944 34.8941C234.147 34.9548 236.3 36.2587 237.189 36.7843C238.089 37.3099 239.636 35.7432 242.082 36.754C244.538 37.7648 244.417 39.8773 245.357 40.4231C249.45 41.2621 251.067 44.0619 251.563 46.3665C251.492 46.316 251.431 46.2654 251.361 46.2149C249.642 44.7998 247.499 43.9912 245.144 43.6778Z" fill="url(#paint35_linear_1_193)"/>
<path opacity="0.4" d="M218.783 41.1408C219.521 40.6859 220.4 40.4231 221.27 40.2614C219.945 41.3834 218.065 42.8692 218.945 44.4663C220.41 47.1448 223.473 48.8227 224.342 51.9764C225.232 55.3423 221.927 57.4447 219.228 58.688C218.268 59.1428 218.187 60.0525 218.53 60.9218C219.44 63.3275 221.522 65.258 224.009 65.7735C229.892 66.9865 235.461 65.3086 241.414 64.9346C242.991 64.7931 244.366 65.9353 245.559 66.8349C246.115 66.3396 246.66 65.8241 247.186 65.2884C247.004 66.2284 246.731 67.2594 246.054 67.9366C244.78 69.2102 242.354 69.9178 241.485 70.0391C240.616 70.1603 240.909 71.161 240.424 71.626C239.363 72.6671 237.685 73.3645 236.421 72.9804C235.319 73.8901 234.511 73.7183 233.187 74.1024C230.72 74.7998 228.962 74.9009 227.365 73.4454C225.889 72.101 226.071 69.0788 225.131 68.4521C224.191 67.8254 220.623 66.9966 219.329 66.3699C216.398 64.9548 214.79 62.2864 214.669 59.0417C214.568 56.4946 216.772 54.4225 216.994 53.7857C217.216 53.1489 215.094 49.3382 215.225 47.2156C215.356 44.9717 216.62 42.4851 218.783 41.1408Z" fill="url(#paint36_linear_1_193)"/>
</g>
<path d="M222.25 57.3638C230.922 64.3079 233.389 76.8012 233.389 76.8012L241.455 71.7472C230.407 59.0619 232.984 53.816 232.883 48.3982C232.883 48.3982 232.206 47.0741 231.741 48.5902C231.499 49.3887 231.165 52.6334 231.711 56.2317C229.103 52.3706 229.507 48.9945 228.608 47.9534C228.294 47.5997 227.435 47.7007 227.435 47.7007C227.435 47.7007 228.699 56.818 233.652 66.6832C233.652 66.6832 228.112 57.0808 224.999 54.8975C224.413 54.5033 224.019 54.9986 224.484 55.9184C224.484 55.9184 225.909 57.5761 227.486 60.3962C224.706 57.9905 224.241 57.4144 223.261 56.5956C222.29 55.7971 221.805 56.4541 222.25 57.3638Z" fill="url(#paint37_linear_1_193)"/>
<path d="M253.786 56.3025C254.888 56.0599 255.666 55.0492 255.869 53.8868C256.111 52.4717 255.707 50.9656 254.949 49.7628C253.544 47.5492 250.865 46.5485 248.369 47.1044C247.984 46.3463 247.216 45.7803 246.357 45.7095C245.559 45.6489 244.861 45.9723 244.366 46.5283C243.921 46.5081 243.476 46.5384 243.052 46.6496C242.001 46.9124 241.101 47.8625 241.091 48.9339C239.635 49.4595 238.857 51.2789 238.756 52.7446C238.685 53.7958 238.827 54.9582 239.625 55.7264C239.949 56.0397 240.394 56.1105 240.434 56.6058C240.474 57.0707 240.525 57.5357 240.707 57.9703C241.071 58.8497 241.748 59.5673 242.587 60.0222C242.941 60.2142 243.355 60.3457 243.749 60.4164C244.214 60.4872 244.77 60.3052 245.205 60.4366C245.458 60.5074 245.69 60.7803 245.902 60.9218C246.104 61.0633 246.317 61.1846 246.539 61.2756C246.964 61.4474 247.418 61.5081 247.883 61.4878C248.763 61.4474 249.602 61.0633 250.35 60.6186C251.886 59.6785 253.524 58.1624 253.786 56.3025Z" fill="url(#paint38_linear_1_193)"/>
<path opacity="0.4" d="M241.354 55.5646C241.768 55.9993 242.365 56.7978 242.658 56.5552C245.356 54.2405 248.844 55.8881 251.866 56.4541C253.645 56.7675 254.575 54.8268 255.09 53.5127C255.333 52.9366 255.575 52.2392 255.717 51.5013C255.929 52.2796 256 53.0882 255.869 53.8766C255.666 55.0289 254.878 56.0397 253.786 56.2924C253.524 58.1522 251.886 59.6684 250.34 60.5983C249.602 61.0431 248.753 61.4272 247.873 61.4676C247.418 61.4878 246.964 61.4272 246.529 61.2553C246.297 61.1644 246.094 61.033 245.892 60.9016C245.68 60.7499 245.447 60.4871 245.195 60.4164C244.76 60.285 244.204 60.4669 243.739 60.3962C243.335 60.3355 242.931 60.194 242.577 60.002C241.738 59.5572 241.061 58.8396 240.697 57.9501C240.515 57.5053 240.464 57.0505 240.424 56.5855C240.383 56.0902 239.949 56.0296 239.615 55.7061C238.827 54.9379 238.675 53.7654 238.746 52.7243C238.756 52.6435 238.756 52.5727 238.766 52.4918C239.625 53.5228 240.424 54.5639 241.354 55.5646Z" fill="url(#paint39_linear_1_193)"/>
<path d="M225.262 52.977C224.322 52.2088 223.17 51.7337 222.038 51.3092C220.926 50.8948 219.784 50.6219 218.662 51.1677C218.419 51.289 218.186 51.4204 217.974 51.5922C217.742 51.7843 217.55 52.0572 217.277 52.1886C216.832 52.4009 216.205 52.2593 215.72 52.3503C214.558 52.5828 213.587 53.26 212.93 54.2304C212.769 54.4629 212.617 54.7257 212.385 54.8874C212.122 55.0794 211.778 55.1502 211.485 55.2715C210.929 55.5141 210.515 55.9083 210.232 56.4339C209.959 56.9292 209.817 57.4851 209.706 58.041C209.565 58.6879 209.433 59.3348 209.302 59.9817C209.17 60.6286 209.019 61.2654 208.908 61.9224C208.806 62.4581 208.766 63.0141 208.908 63.5498C209.059 64.1259 209.453 64.5404 209.827 64.9851C210.009 65.1974 210.211 65.4298 210.262 65.7028C210.323 65.9757 210.242 66.2587 210.171 66.5316C209.898 67.6131 209.767 68.7048 210.141 69.7863C210.464 70.7162 211.192 71.5147 212.132 71.8483C212.213 71.8786 212.304 71.8989 212.385 71.9191C212.385 72.0404 212.425 72.1616 212.516 72.2526C213.951 73.7587 216.327 74.2439 218.217 73.2937C218.742 73.0309 219.127 72.6569 219.591 72.3032C220.036 71.9595 220.592 71.9898 221.118 71.8584C222.24 71.5754 222.654 70.6354 223.018 69.6347C223.18 69.1798 223.362 68.7553 223.746 68.442C224.191 68.0882 224.716 67.8456 225.171 67.5019C225.626 67.1482 225.98 66.6933 226.162 66.1374C226.323 65.6421 226.344 65.0963 226.566 64.6212C226.808 64.0956 227.334 63.7317 227.708 63.287C228.042 62.8827 228.325 62.4278 228.537 61.9426C228.982 60.9521 229.174 59.7594 228.951 58.6879C228.83 58.1017 228.618 57.5255 228.213 57.0808C228.011 56.8584 227.789 56.6765 227.536 56.5046C227.314 56.353 227.102 56.2216 226.99 55.9689C226.879 55.696 226.849 55.3928 226.758 55.1098C226.677 54.8267 226.556 54.5639 226.404 54.3112C226.121 53.7856 225.717 53.351 225.262 52.977Z" fill="url(#paint40_linear_1_193)"/>
<path opacity="0.4" d="M211.505 55.2917C211.799 55.1603 212.142 55.0997 212.405 54.9076C212.637 54.7358 212.789 54.4831 212.951 54.2506C213.476 53.4723 214.204 52.8861 215.063 52.5626C214.993 52.6738 214.922 52.7951 214.841 52.9063C214.75 53.0175 214.619 53.4016 214.578 53.5633C213.628 55.2917 211.889 57.2527 212.85 59.0215C213.305 59.9818 214.619 60.3962 215.124 61.3059C215.983 62.6098 215.447 64.2978 215.751 65.8039C215.902 66.9056 215.7 68.1893 216.964 68.6644C219.046 69.4225 221.381 69.4326 223.463 68.7655C223.261 69.0283 223.139 69.3315 223.028 69.6549C222.664 70.6556 222.25 71.5855 221.128 71.8787C220.613 72.0101 220.046 71.9899 219.602 72.3234C219.137 72.6772 218.753 73.0512 218.227 73.3241C216.337 74.2742 213.962 73.789 212.526 72.283C212.435 72.192 212.405 72.0707 212.395 71.9494C212.314 71.9292 212.223 71.8989 212.142 71.8787C211.202 71.5451 210.474 70.7466 210.151 69.8167C209.777 68.7351 209.908 67.6435 210.181 66.562C210.252 66.2992 210.323 66.0161 210.272 65.7331C210.212 65.4602 210.009 65.2277 209.838 65.0155C209.464 64.5707 209.069 64.1563 208.918 63.5801C208.776 63.0444 208.827 62.4885 208.918 61.9528C209.039 61.3059 209.181 60.659 209.322 60.0121C209.453 59.3652 209.585 58.7183 209.726 58.0714C209.848 57.5256 209.979 56.9595 210.252 56.4642C210.535 55.9285 210.949 55.5343 211.505 55.2917Z" fill="url(#paint41_linear_1_193)"/>
<path d="M236.704 39.9379C235.309 39.9076 233.874 40.3423 232.792 41.2216C232.014 40.0188 230.508 39.3416 229.022 39.6751C227.081 40.1199 225.929 41.6765 225.333 43.4454C224.049 44.2237 223.008 45.4669 222.533 46.8921C221.492 50.0357 223.19 53.3106 226.05 54.6549C225.454 55.8982 225.505 57.3942 226.253 58.6071C227.203 60.1435 228.982 60.7904 230.73 60.5175C231.62 60.3861 232.459 60.0727 233.328 59.8504C234.278 59.5977 235.117 59.6684 236.088 59.6987C237.978 59.7695 239.838 58.9609 241.03 57.475C242.092 56.161 242.466 54.4326 242.203 52.7951C243.325 52.4312 244.245 51.5822 244.841 50.5411C245.68 49.0552 245.751 47.3167 245.144 45.7297C243.911 42.5255 240.11 40.0087 236.704 39.9379Z" fill="url(#paint42_linear_1_193)"/>
<path opacity="0.4" d="M224.069 50.7836C224.959 52.977 227.476 53.3308 229.649 53.2904C232.176 53.1691 233.217 55.878 235.238 57.0707C235.633 57.3032 236.057 57.3638 236.451 57.01C238.19 55.1603 237.745 52.6536 237.482 50.2984C237.29 49.3584 238.028 48.7115 238.958 48.4184C239.787 48.2365 240.525 48.7519 241.101 49.227C242.708 47.0437 242.951 43.9204 241.677 41.6057C243.244 42.6468 244.527 44.1023 245.154 45.7297C245.761 47.3166 245.69 49.0552 244.851 50.541C244.265 51.5821 243.335 52.4312 242.213 52.7951C242.476 54.4325 242.102 56.1509 241.04 57.475C239.848 58.9609 237.988 59.7695 236.098 59.6987C235.127 59.6684 234.288 59.5976 233.338 59.8503C232.479 60.0727 231.63 60.3861 230.74 60.5175C228.992 60.7803 227.213 60.1435 226.263 58.6071C225.515 57.3941 225.464 55.8982 226.06 54.6549C223.2 53.3207 221.502 50.0356 222.543 46.8921C222.846 45.9925 223.372 45.1536 224.039 44.4662C223.301 46.4979 223.251 48.7621 224.069 50.7836Z" fill="url(#paint43_linear_1_193)"/>
<path d="M241.364 71.5249C240.232 70.5848 233.035 73.7587 233.298 76.5788C233.55 79.3888 243.598 73.3847 241.364 71.5249Z" fill="url(#paint44_linear_1_193)"/>
<path d="M201.094 23.3308L176.917 23.1489V17.5693C176.917 17.0437 177.361 16.6293 177.887 16.6596L200.225 17.9332C200.71 17.9636 201.084 18.3578 201.084 18.8429V23.3308H201.094Z" fill="url(#paint45_linear_1_193)"/>
<path d="M201.367 23.3308L177.189 21.9561V17.5693C177.189 17.0437 177.634 16.6293 178.16 16.6596L200.498 17.9332C200.983 17.9636 201.357 18.3578 201.357 18.8429V23.3308H201.367Z" fill="#D8DEE8"/>
<path d="M213.739 94.9851L190.147 96.2991V27.6974L213.739 29.0114V94.9851Z" fill="#D8DEE8"/>
<path d="M205.996 38.2702C199.972 39.7964 209.403 47.6199 204.086 49.2473C199.861 50.5411 200.366 38.7756 196.495 42.1111C192.573 45.4973 197.779 55.5849 200.417 63.3375C203.035 71.0195 203.166 82.1078 195.302 80.1671C193.099 79.6212 191.502 78.8328 190.157 77.9433V96.289L213.749 94.975V40.8881C211.869 38.7756 209.17 37.4716 205.996 38.2702Z" fill="url(#paint46_linear_1_193)"/>
<path d="M190.158 96.2992L166.586 91.9629V35.2278L190.158 27.7379V96.2992Z" fill="url(#paint47_linear_1_193)"/>
<path d="M190.158 27.7378L166.586 35.2277L177.26 21.6934L190.158 27.7378Z" fill="url(#paint48_linear_1_193)"/>
<g opacity="0.3">
<path opacity="0.3" d="M177.26 21.6934L166.586 35.2277L180.393 23.159L177.26 21.6934Z" fill="#E6E6E6"/>
</g>
<path d="M166.586 78.6812V91.973L190.168 96.3092V77.9838C186.145 75.4366 184.265 72.5559 177.715 71.9191C173.439 71.4946 169.396 75.1536 166.586 78.6812Z" fill="#D8DEE8"/>
<path d="M172.378 59.0822V59.1024L175.996 60.4872V62.4077L172.378 64.0249V64.0451L178.291 64.0148V66.0667L168.982 65.9252V63.9137L174.248 61.5081V61.4878L168.982 59.4258V57.3639L178.291 56.626V58.7284L172.378 59.0822Z" fill="url(#paint49_linear_1_193)"/>
<path d="M178.291 54.5034L168.982 55.4333V53.2803L178.291 52.1281V54.5034Z" fill="url(#paint50_linear_1_193)"/>
<path d="M168.982 49.3181L176.35 48.0849V44.2338L178.291 43.8295V49.9852L168.982 51.3396V49.3181Z" fill="url(#paint51_linear_1_193)"/>
<path d="M168.982 42.3133L172.752 41.3935V41.3733L168.982 39.7358V37.4515L173.217 39.3416L178.291 34.5505V37.0674L173.692 41.1408V41.161L178.291 40.0391V42.2022L168.982 44.2743V42.3133Z" fill="url(#paint52_linear_1_193)"/>
<path d="M177.26 21.6934L201.367 22.7749L213.739 29.0114L190.158 27.7378L177.26 21.6934Z" fill="url(#paint53_linear_1_193)"/>
<path d="M190.158 27.7378L177.26 21.6934L179.069 24.1395L190.158 27.7378Z" fill="#E6E6E6"/>
<path d="M209.302 35.8645C209.181 35.5815 208.938 35.3591 208.635 35.2783C207.917 35.0761 207.149 35.2782 206.775 35.9251C205.077 38.8564 206.603 45.8308 206.603 45.8308H207.745C207.159 41.6361 208.413 38.2297 209.262 36.6428C209.403 36.3699 209.423 36.1475 209.302 35.8645Z" fill="url(#paint54_linear_1_193)"/>
<path d="M226.061 54.9178C225.687 57.1314 225.232 59.7089 224.524 62.2257C223.706 65.1166 222.563 67.9164 220.825 69.9481C218.005 73.2635 215.185 71.4238 208.807 71.4238C204.703 71.4238 203.389 69.655 201.185 66.5721C198.689 63.0849 195.565 59.8807 194.585 55.5546C193.685 51.5923 195.191 47.5896 198.578 45.8409C199.568 45.4872 200.71 45.2648 202.004 45.3254C203.005 45.3659 203.955 45.4771 204.885 45.4872C207.058 45.5276 209.11 45.4265 211.394 44.6684C214.73 43.5566 222.29 41.7473 224.898 45.3659C226.667 47.8221 226.536 52.1078 226.061 54.9178Z" fill="url(#paint55_linear_1_193)"/>
<path opacity="0.3" d="M224.524 62.2257C223.706 65.1166 222.563 67.9164 220.825 69.9481C218.005 73.2635 215.185 71.4239 208.807 71.4239C204.703 71.4239 203.389 69.655 201.185 66.5721C198.689 63.0849 195.565 59.8807 194.585 55.5546C193.685 51.5923 195.191 47.5896 198.578 45.8409C198.578 45.8409 194.393 56.3632 202.004 58.506C209.605 60.6489 210.161 69.4124 216.903 65.6725C219.915 63.9845 222.533 62.7311 224.524 62.2257Z" fill="url(#paint56_linear_1_193)"/>
<path opacity="0.5" d="M219.228 45.5882C219.228 45.5882 213.102 44.5471 214.932 48.9743C216.772 53.4016 221.795 57.6367 223.514 54.5943C225.242 51.5518 222.786 46.7304 219.228 45.5882Z" fill="white"/>
<path d="M178.594 87.1212L175.511 124.935L175.016 133.829C173.925 139.571 172.772 143.583 171.731 143.604C169.305 143.644 165.859 139.247 163.271 135.649C162.22 134.183 161.32 132.849 160.683 132.01C158.49 129.079 161.229 102.728 161.967 99.2506C162.695 95.7735 163.19 68.5633 162.937 67.2189C162.695 65.8746 164.888 54.4022 164.888 54.4022L168.092 58.0613L168.305 58.3038L173.177 55.504L175.37 58.9204C175.39 58.9204 177.432 76.1745 178.594 87.1212Z" fill="url(#paint57_linear_1_193)"/>
<path opacity="0.7" d="M178.594 87.1212L175.512 124.935L175.016 133.829C173.925 139.571 172.772 143.583 171.731 143.604C169.305 143.644 165.859 139.247 163.271 135.649C165.191 128.3 169.871 110.177 169.609 108.338C169.326 106.265 168.315 66.5518 168.103 58.0612L168.315 58.3038L173.187 55.504L175.38 58.9204C175.39 58.9204 177.432 76.1744 178.594 87.1212Z" fill="url(#paint58_linear_1_193)"/>
<path d="M255.171 135.335C255.252 138.327 253.706 140.976 251.33 142.462C250.178 143.169 248.844 143.604 247.388 143.674C225.05 144.604 173.419 149.951 171.731 143.614C169.78 136.296 177.351 103.102 177.108 98.9575C176.856 94.8133 175.4 58.9406 175.4 58.9406L179.17 59.8807L180.282 60.1637L188.338 56.5046L195.414 60.4164L204.683 56.5046L211.758 60.6589L218.834 57.7277L224.686 60.6589L232.004 56.5046L236.644 60.1637L244.204 56.5046L248.601 60.6589L253.241 56.5046L253.483 60.4164C253.483 60.386 254.625 114.261 255.171 135.335Z" fill="url(#paint59_linear_1_193)"/>
<path opacity="0.2" d="M251.33 142.451C250.178 143.159 248.844 143.594 247.388 143.664C225.05 144.594 173.419 149.941 171.731 143.604C169.78 136.286 177.351 103.092 177.108 98.9474C176.856 94.8032 175.4 58.9305 175.4 58.9305L179.17 59.8706C182.263 61.7405 186.074 65.157 186.539 65.7938C194.787 76.9528 184.032 98.0478 198.315 105.507C207.513 110.298 219.228 106.447 228.133 111.946C231.681 114.139 234.41 117.768 235.532 121.791C236.714 126.026 235.36 131.05 238.493 134.628C241.515 138.065 246.691 140.036 251.33 142.451Z" fill="url(#paint60_linear_1_193)"/>
<path d="M252.968 134.588V129.453C252.968 129.453 252.23 128.351 251.846 125.642C251.462 122.923 252.159 124.005 252.513 125.137C252.614 125.45 252.806 125.723 253.049 125.945C253.645 126.501 254.625 126.137 254.747 125.329L255.232 121.922C255.232 121.922 257.203 123.944 255.778 128.988C255.333 130.565 255.778 134.375 255.778 134.375L252.968 134.588Z" fill="url(#paint61_linear_1_193)"/>
<path d="M162.978 138.681L161.684 133.678C161.684 133.678 162.927 131.757 162.331 129.796C161.735 127.836 162.088 128.533 161.613 129.796C161.128 131.06 160.178 128.917 159.44 126.976C158.692 125.026 158.318 128.017 158.5 129.796C158.682 131.575 158.753 132.627 159.804 133.92C160.865 135.214 160.653 139.823 160.653 139.823L162.978 138.681Z" fill="url(#paint62_linear_1_193)"/>
<path d="M236.441 276.42C236.482 275.319 239.14 275.541 240.879 275.703C242.617 275.875 243.385 276.572 243.658 277.219C243.931 277.876 243.729 279.483 242.122 278.806C240.798 278.26 236.401 277.391 236.441 276.42Z" fill="#26264F"/>
<path d="M239.646 272.145L240.889 276.42C240.889 276.42 242.132 277.27 242.537 276.845L242.072 271.922L239.646 272.145Z" fill="url(#paint63_linear_1_193)"/>
<path d="M230.892 269.618L234.996 271.407L234.309 273.489L230.195 272.418L230.892 269.618Z" fill="url(#paint64_linear_1_193)"/>
<path d="M230.66 277.674C230.66 277.674 233.389 278.381 234.602 276.764C235.38 275.723 236.027 273.964 236.391 272.832C236.583 272.216 236.28 271.559 235.683 271.326C234.814 270.982 233.641 270.608 233.136 270.891C232.297 271.367 233.086 274.51 232.712 275.329C232.338 276.148 230.559 276.673 230.66 277.674Z" fill="#26264F"/>
<path d="M224.282 205.696C224.898 215.602 226.263 227.084 228.982 239.658C231.812 252.768 235.491 264.2 239.181 273.752C239.534 273.924 240.171 274.166 241 274.197C241.97 274.227 242.708 273.934 243.072 273.752C243.739 268.647 244.093 264.331 244.285 261.137C244.79 252.687 245.023 248.351 243.871 243.317C242.789 238.597 241.92 238.961 240.798 233.745C239.797 229.106 239.777 225.538 239.767 220.312C239.767 216.724 239.929 211.882 240.626 206.131C235.178 205.989 229.73 205.848 224.282 205.696Z" fill="url(#paint65_linear_1_193)"/>
<path opacity="0.3" d="M239.726 270.265C238.645 266.767 240.778 265.17 240.535 260.733C240.232 255.315 236.896 255.154 235.835 249.059C234.986 244.156 237.048 243.742 236.502 237.778C235.926 231.451 233.429 230.167 233.955 226.367C234.248 224.254 235.481 221.373 239.797 218.24C239.858 214.935 240.07 210.841 240.636 206.131C235.188 205.989 229.74 205.838 224.292 205.696C224.908 215.602 226.273 227.084 228.992 239.658C231.822 252.768 235.501 264.2 239.191 273.752C239.544 273.924 240.181 274.166 241.01 274.197C241.445 274.207 241.829 274.156 242.162 274.075C241.131 273.075 240.212 271.831 239.726 270.265Z" fill="url(#paint66_linear_1_193)"/>
<path d="M211 203.958C210.798 206.343 210.414 209.962 209.575 214.298C207.695 224.082 205.532 227.226 204.956 233.624C204.288 241.084 206.33 246.966 207.109 249.2C212.405 264.453 226.93 271.548 230.771 273.287C231.206 271.882 231.64 270.467 232.075 269.062C231.105 267.768 229.679 265.686 228.325 262.926C226.02 258.216 225.859 255.447 224.292 250.807C221.452 242.438 219.299 243.621 218.773 239.365C217.954 232.613 223.402 229.884 228.315 216.976C229.72 213.277 230.549 210.164 231.003 208.253C224.332 206.818 217.661 205.383 211 203.958Z" fill="url(#paint67_linear_1_193)"/>
<path d="M252.078 132.536C253.463 132.313 254.848 132.091 256.243 131.869C257.981 134.315 263.005 142.057 262.014 152.408C261.782 154.864 260.771 162.991 253.888 169.47C248.965 174.109 243.487 175.565 240.98 176.06C240.98 188.108 241.202 195.71 241.617 200.258C241.667 200.804 242.092 205.403 241.475 211.346C241.283 213.156 241.182 214.065 240.939 214.571C237.503 221.495 217.823 216.006 212.506 213.712C211.121 213.115 209.716 212.286 209.12 210.811C208.352 208.92 209.09 207.212 209.393 205.706C210.131 202.027 207.948 199.247 203.561 192.111C201.711 189.089 199.012 184.561 195.869 178.678C192.23 179.739 183.648 181.639 175.249 177.637C162.907 171.754 155.862 155.44 159.46 137.772C160.714 137.418 161.967 137.054 163.22 136.7C164.049 140.127 165.646 144.746 168.921 149.406C170.912 152.236 172.56 154.581 175.431 155.895C179.939 157.957 183.941 155.865 189.794 154.419C199.012 152.145 206.724 152.994 216.094 154.025C226.324 155.157 229.134 157.259 236.613 155.844C239.939 155.218 244.103 154.379 247.52 151.063C254.221 144.554 252.351 133.991 252.078 132.536Z" fill="url(#paint68_linear_1_193)"/>
<path d="M213.84 145.999C213.84 145.999 213.224 148.455 214.093 149.557C214.962 150.659 217.843 154.874 218.783 155.086C219.319 155.207 218.975 157.542 215.791 157.512C211.202 157.462 208.493 154.844 208.493 154.844C210.262 154.975 211.324 153.135 211.132 151.367L211 150.214L213.84 145.999Z" fill="url(#paint69_linear_1_193)"/>
<path d="M211.95 150.942C211.667 150.79 209.353 150.507 209.039 149.264C208.605 147.576 210.121 145.524 210.313 145.201C211.101 143.816 211.304 143.634 211.667 143.402L212.173 143.098C212.173 143.098 212.203 143.088 212.233 143.078C212.557 142.967 213.659 142.967 213.881 143.017C214.589 143.189 215.286 146.1 214.973 150.204C215.003 150.366 215.023 150.517 215.043 150.679C215.114 151.083 211.93 151.094 211.95 150.942Z" fill="url(#paint70_linear_1_193)"/>
<path d="M209.777 142.836C209.676 143.341 211 144.332 211.566 144.766C211.637 144.817 211.839 144.999 212.011 145.282C212.041 145.322 212.062 145.373 212.082 145.433C212.345 146.242 211.051 147.152 211.283 147.515C211.455 147.778 212.324 147.455 212.425 147.677C212.516 147.889 211.789 148.314 211.89 148.567C211.971 148.759 212.415 148.597 212.688 148.89C212.82 149.042 212.779 149.153 212.921 149.608C213.002 149.86 213.113 150.144 213.194 150.295C213.618 151.053 214.851 151.356 215.104 151.063C215.175 150.982 215.114 150.912 215.195 150.629C215.195 150.629 215.266 150.376 215.448 150.073C215.711 149.648 216.347 149.355 216.984 148.92C218.167 148.112 218.49 147.404 218.591 147.172C218.601 147.141 218.611 147.121 218.622 147.101C218.642 147.061 218.652 147.02 218.662 146.98C218.915 146.171 217.874 144.756 217.874 144.756C217.045 143.644 216.004 142.896 215.165 142.421C213.638 142.118 212.385 142.158 211.526 142.249C210.828 142.33 209.858 142.441 209.777 142.836Z" fill="#26264F"/>
<path d="M209.302 147.05C209.302 147.05 210.282 148.223 211.576 146.818L212.213 147.01C212.213 147.01 210.656 150.437 210.323 150.437C209.989 150.437 209.019 150.214 209.019 150.214C208.655 150.063 208.453 149.668 208.534 149.284C208.675 148.577 209.07 147.556 209.302 147.05Z" fill="#26264F"/>
<path d="M211.88 147.232C212.203 146.808 212.739 147.222 212.729 147.778C212.718 148.334 212.173 148.9 211.647 148.779C211.132 148.648 211.445 147.798 211.88 147.232Z" fill="url(#paint71_linear_1_193)"/>
<path opacity="0.4" d="M235.693 212.549C229.022 214.894 221.259 211.468 219.319 206.778C217.883 203.311 220.946 200.005 218.783 196.437C216.701 193.001 212.931 194.537 210.323 191.07C207.493 187.28 210.828 183.934 208.311 178.85C206.421 175.029 201.893 171.592 197.435 171.602C192.149 171.612 190.168 176.484 185.619 175.494C183.244 174.978 183.305 173.543 179.979 171.198C174.218 167.125 170.356 168.833 165.616 165.962C164.221 165.123 162.664 163.829 161.219 161.747C164.049 168.944 168.951 174.635 175.228 177.637C183.628 181.639 192.21 179.739 195.848 178.678C198.992 184.561 201.691 189.089 203.54 192.111C207.927 199.247 210.11 202.027 209.373 205.706C209.069 207.202 208.332 208.92 209.1 210.811C209.696 212.286 211.101 213.115 212.486 213.712C217.803 216.006 237.482 221.495 240.919 214.571C241.162 214.075 241.263 213.156 241.455 211.346C241.576 210.224 241.657 209.143 241.708 208.132C240.343 209.881 238.412 211.589 235.693 212.549Z" fill="url(#paint72_linear_1_193)"/>
<path d="M214.619 142.088C214.619 142.088 213.77 140.925 211.677 141.006C210.424 141.046 210.919 142.542 211.9 143.674C212.88 144.807 214.619 142.088 214.619 142.088Z" fill="url(#paint73_linear_1_193)"/>
<path opacity="0.7" d="M214.619 142.088C214.619 142.088 213.77 140.925 211.677 141.006C210.424 141.046 210.919 142.542 211.9 143.674C212.88 144.807 214.619 142.088 214.619 142.088Z" fill="url(#paint74_linear_1_193)"/>
<path d="M219.561 145.807C219.551 145.797 219.551 145.575 219.541 145.565C219.319 143.776 217.914 141.976 216.003 141.36C213.001 140.389 211.374 142.977 211.374 142.977L211.9 143.654L212.264 144.059C212.9 144.958 213.85 146.212 215.144 147.283C215.943 147.95 217.156 148.668 217.408 148.779C217.489 148.749 219.622 147.546 219.561 145.807Z" fill="url(#paint75_linear_1_193)"/>
<path d="M208.625 154.389C208.625 154.389 210.636 152.6 210.95 153.055C211.263 153.509 214.073 155.561 215.468 155.339C216.873 155.117 216.873 153.499 218.318 154.166C219.764 154.844 221.775 156.734 220.714 157.148C219.369 157.664 217.752 157.785 216.327 157.906C214.578 158.058 212.789 157.815 211.121 157.249C210.333 156.986 209.565 156.653 208.827 156.279C208.503 156.117 207.513 155.753 207.493 155.319C207.452 154.611 208.625 154.389 208.625 154.389Z" fill="url(#paint76_linear_1_193)"/>
<path d="M151.92 244.449C148.877 244.207 144.986 243.358 141.246 240.922C137.203 238.284 131.937 232.846 133.311 229.429C133.827 228.156 135.302 227.054 136.596 227.165C138.517 227.317 138.739 229.985 142.065 232.886C142.681 233.422 145.865 236.191 147.442 235.261C148.23 234.796 148.463 233.513 148.331 232.532C147.957 229.672 144.47 229.237 141.114 226.144C137.718 223.011 134.878 217.532 136.495 213.833C137.425 211.71 139.891 210.032 141.509 210.497C142.196 210.699 142.641 211.265 144.743 215.804C146.472 219.534 146.856 220.615 147.968 220.969C149.11 221.333 150.889 220.878 151.566 219.746C153.325 216.805 145.713 212.478 145.026 204.261C144.713 200.581 145.713 195.123 149.049 193.951C151.303 193.162 154.517 194.365 155.68 196.437C156.731 198.297 155.457 199.702 156.256 203.897C156.499 205.17 156.994 207.788 158.045 207.92C159.278 208.081 160.663 204.746 160.986 203.937C163.392 197.822 160.633 194.679 162.897 191.707C164.666 189.392 168.517 188.462 171.559 189.635C174.228 190.656 176.36 193.314 176.502 196.073C176.643 198.883 174.288 201.673 169.568 207.253C167.334 209.901 165.545 211.69 165.646 214.328C165.697 215.612 166.202 217.421 167.122 217.583C169.153 217.947 170.144 209.78 174.955 208.516C177.412 207.869 180.474 209.143 181.819 211.356C183.466 214.075 182.364 217.926 180.292 219.948C177.594 222.586 174.824 220.585 169.75 223.425C167.496 224.689 163.958 227.367 164.474 229.581C164.696 230.541 165.707 231.491 166.819 231.613C169.305 231.896 170.124 227.822 174.127 226.023C177.007 224.729 180.99 224.871 181.94 226.498C183.274 228.792 178.534 233.998 176.007 236.303C172.984 239.072 165.788 244.338 151.92 244.449Z" fill="url(#paint77_linear_1_193)"/>
<path opacity="0.5" d="M153.284 243.145C152.88 236.333 157.398 222.445 160.683 215.875C163.897 209.446 166.97 199.288 167 199.187L167.203 199.247C167.172 199.348 164.089 209.527 160.865 215.966C157.59 222.505 153.092 236.343 153.486 243.125L153.284 243.145Z" fill="white"/>
<path d="M144.753 245.339C142.459 242.155 139.103 236.414 138.496 228.742C138.244 225.578 137.759 219.402 141.539 214.065C143.419 211.407 147.422 207.475 150.12 208.617C151.859 209.345 152.941 212.125 152.445 214.227C151.95 216.35 150.151 216.552 148.2 220.16C147.472 221.495 146.643 223.061 147.28 223.951C147.816 224.689 149.271 224.83 150.363 224.385C152.627 223.466 151.92 220.656 154.356 218.634C156.094 217.199 158.985 216.522 160.238 217.704C161.32 218.725 161.138 221.111 160.178 222.697C158.641 225.245 155.892 224.497 154.093 227.276C153.294 228.509 152.728 230.369 153.426 231.107C154.224 231.946 156.559 231.218 158.055 230.288C160.036 229.065 160.107 227.761 161.411 227.6C162.866 227.418 164.676 228.803 164.959 230.329C165.353 232.472 162.725 234.786 160.643 235.787C157.974 237.071 155.993 236.323 154.699 238.071C154.224 238.718 153.78 239.77 154.174 240.406C154.73 241.316 156.751 241.013 158.096 240.821C161.36 240.336 162.26 239.153 163.432 239.729C164.615 240.315 165.232 242.276 164.716 243.661C164.433 244.429 163.574 245.612 159.339 246.36C156.377 246.875 151.394 247.239 144.753 245.339Z" fill="url(#paint78_linear_1_193)"/>
<path d="M154.285 30.568C153.578 32.0438 140.417 31.8821 114.117 31.5485C111.347 31.5182 107.506 31.4373 106.132 30.2042C104.009 28.2837 108.355 24.0586 113.177 23.725C117.604 23.4218 119.039 26.626 125.154 26.909C130.451 27.1516 132.078 24.8672 137.607 24.5842C145.734 24.1698 155.306 28.4353 154.285 30.568Z" fill="white"/>
<defs>
<linearGradient id="paint0_linear_1_193" x1="-38.9729" y1="147.978" x2="101.708" y2="162.312" gradientUnits="userSpaceOnUse">
<stop stop-color="#D8DEE8"/>
<stop offset="1" stop-color="white"/>
</linearGradient>
<linearGradient id="paint1_linear_1_193" x1="-13.7434" y1="133.857" x2="370.857" y2="109.82" gradientUnits="userSpaceOnUse">
<stop stop-color="#D8DEE8"/>
<stop offset="1" stop-color="white"/>
</linearGradient>
<linearGradient id="paint2_linear_1_193" x1="56.1453" y1="25.1983" x2="84.6713" y2="98.6742" gradientUnits="userSpaceOnUse">
<stop stop-color="#FF9085"/>
<stop offset="1" stop-color="#FB6FBB"/>
</linearGradient>
<linearGradient id="paint3_linear_1_193" x1="45.9312" y1="29.1645" x2="74.4572" y2="102.641" gradientUnits="userSpaceOnUse">
<stop stop-color="#FF9085"/>
<stop offset="1" stop-color="#FB6FBB"/>
</linearGradient>
<linearGradient id="paint4_linear_1_193" x1="67.2239" y1="81.5605" x2="48.697" y2="109.682" gradientUnits="userSpaceOnUse">
<stop stop-color="#FF9085"/>
<stop offset="1" stop-color="#FB6FBB"/>
</linearGradient>
<linearGradient id="paint5_linear_1_193" x1="79.7815" y1="235.901" x2="78.3037" y2="262.501" gradientUnits="userSpaceOnUse">
<stop stop-color="#444B8C"/>
<stop offset="0.9964" stop-color="#26264F"/>
</linearGradient>
<linearGradient id="paint6_linear_1_193" x1="78.2317" y1="244.432" x2="76.0188" y2="244.432" gradientUnits="userSpaceOnUse">
<stop stop-color="#FFC444"/>
<stop offset="0.9964" stop-color="#F36F56"/>
</linearGradient>
<linearGradient id="paint7_linear_1_193" x1="53.0351" y1="234.416" x2="51.5575" y2="261.014" gradientUnits="userSpaceOnUse">
<stop stop-color="#444B8C"/>
<stop offset="0.9964" stop-color="#26264F"/>
</linearGradient>
<linearGradient id="paint8_linear_1_193" x1="55.7633" y1="243.067" x2="51.3625" y2="243.067" gradientUnits="userSpaceOnUse">
<stop stop-color="#FFC444"/>
<stop offset="0.9964" stop-color="#F36F56"/>
</linearGradient>
<linearGradient id="paint9_linear_1_193" x1="88.3925" y1="225.668" x2="73.4776" y2="205.651" gradientUnits="userSpaceOnUse">
<stop stop-color="#AA80F9"/>
<stop offset="0.9964" stop-color="#6165D7"/>
</linearGradient>
<linearGradient id="paint10_linear_1_193" x1="110.915" y1="130.313" x2="116.2" y2="176.892" gradientUnits="userSpaceOnUse">
<stop stop-color="#FFC444"/>
<stop offset="0.9964" stop-color="#F36F56"/>
</linearGradient>
<linearGradient id="paint11_linear_1_193" x1="77.3132" y1="228.152" x2="42.381" y2="195.575" gradientUnits="userSpaceOnUse">
<stop stop-color="#AA80F9"/>
<stop offset="0.9964" stop-color="#6165D7"/>
</linearGradient>
<linearGradient id="paint12_linear_1_193" x1="111.843" y1="154.266" x2="83.8235" y2="154.266" gradientUnits="userSpaceOnUse">
<stop offset="0.00359712" stop-color="#E38DDD"/>
<stop offset="1" stop-color="#9571F6"/>
</linearGradient>
<linearGradient id="paint13_linear_1_193" x1="58.693" y1="138.088" x2="58.037" y2="159.246" gradientUnits="userSpaceOnUse">
<stop stop-color="#444B8C"/>
<stop offset="0.9964" stop-color="#26264F"/>
</linearGradient>
<linearGradient id="paint14_linear_1_193" x1="86.49" y1="227.086" x2="71.5751" y2="207.068" gradientUnits="userSpaceOnUse">
<stop stop-color="#AA80F9"/>
<stop offset="0.9964" stop-color="#6165D7"/>
</linearGradient>
<linearGradient id="paint15_linear_1_193" x1="111.843" y1="157.712" x2="83.8236" y2="157.712" gradientUnits="userSpaceOnUse">
<stop stop-color="#AA80F9"/>
<stop offset="0.9964" stop-color="#6165D7"/>
</linearGradient>
<linearGradient id="paint16_linear_1_193" x1="92.5878" y1="171.305" x2="36.6076" y2="171.305" gradientUnits="userSpaceOnUse">
<stop offset="0.00359712" stop-color="#E38DDD"/>
<stop offset="1" stop-color="#9571F6"/>
</linearGradient>
<linearGradient id="paint17_linear_1_193" x1="64.0711" y1="138.789" x2="55.5333" y2="191" gradientUnits="userSpaceOnUse">
<stop stop-color="#AA80F9"/>
<stop offset="0.9964" stop-color="#6165D7"/>
</linearGradient>
<linearGradient id="paint18_linear_1_193" x1="77.1189" y1="134.148" x2="82.4035" y2="180.726" gradientUnits="userSpaceOnUse">
<stop stop-color="#FFC444"/>
<stop offset="0.9964" stop-color="#F36F56"/>
</linearGradient>
<linearGradient id="paint19_linear_1_193" x1="77.901" y1="134.059" x2="83.1857" y2="180.638" gradientUnits="userSpaceOnUse">
<stop stop-color="#FFC444"/>
<stop offset="0.9964" stop-color="#F36F56"/>
</linearGradient>
<linearGradient id="paint20_linear_1_193" x1="79.5924" y1="155.096" x2="78.1176" y2="177.034" gradientUnits="userSpaceOnUse">
<stop stop-color="#311944"/>
<stop offset="0.2251" stop-color="#45204F"/>
<stop offset="1" stop-color="#893976"/>
</linearGradient>
<linearGradient id="paint21_linear_1_193" x1="84.2112" y1="154.75" x2="75.0255" y2="154.75" gradientUnits="userSpaceOnUse">
<stop stop-color="#311944"/>
<stop offset="1" stop-color="#893976"/>
</linearGradient>
<linearGradient id="paint22_linear_1_193" x1="73.4346" y1="134.566" x2="78.7192" y2="181.144" gradientUnits="userSpaceOnUse">
<stop stop-color="#FFC444"/>
<stop offset="0.9964" stop-color="#F36F56"/>
</linearGradient>
<linearGradient id="paint23_linear_1_193" x1="73.4494" y1="155.133" x2="51.1204" y2="155.258" gradientUnits="userSpaceOnUse">
<stop offset="0.00359712" stop-color="#E38DDD"/>
<stop offset="1" stop-color="#9571F6"/>
</linearGradient>
<linearGradient id="paint24_linear_1_193" x1="207.735" y1="49.7955" x2="228.184" y2="56.0692" gradientUnits="userSpaceOnUse">
<stop stop-color="#FFC444"/>
<stop offset="0.3138" stop-color="#FBA94A"/>
<stop offset="0.9964" stop-color="#F36F56"/>
</linearGradient>
<linearGradient id="paint25_linear_1_193" x1="220.653" y1="17.2502" x2="229.663" y2="20.0145" gradientUnits="userSpaceOnUse">
<stop stop-color="#FFC444"/>
<stop offset="0.3138" stop-color="#FBA94A"/>
<stop offset="0.9964" stop-color="#F36F56"/>
</linearGradient>
<linearGradient id="paint26_linear_1_193" x1="212.502" y1="35.5896" x2="220.297" y2="37.981" gradientUnits="userSpaceOnUse">
<stop stop-color="#FFC444"/>
<stop offset="0.3138" stop-color="#FBA94A"/>
<stop offset="0.9964" stop-color="#F36F56"/>
</linearGradient>
<linearGradient id="paint27_linear_1_193" x1="206.623" y1="53.4203" x2="212.15" y2="55.116" gradientUnits="userSpaceOnUse">
<stop stop-color="#FFC444"/>
<stop offset="0.3138" stop-color="#FBA94A"/>
<stop offset="0.9964" stop-color="#F36F56"/>
</linearGradient>
<linearGradient id="paint28_linear_1_193" x1="201.65" y1="73.5559" x2="208.719" y2="75.7244" gradientUnits="userSpaceOnUse">
<stop stop-color="#FFC444"/>
<stop offset="0.3138" stop-color="#FBA94A"/>
<stop offset="0.9964" stop-color="#F36F56"/>
</linearGradient>
<linearGradient id="paint29_linear_1_193" x1="199.673" y1="90.6037" x2="205.531" y2="92.4007" gradientUnits="userSpaceOnUse">
<stop stop-color="#FFC444"/>
<stop offset="0.3138" stop-color="#FBA94A"/>
<stop offset="0.9964" stop-color="#F36F56"/>
</linearGradient>
<linearGradient id="paint30_linear_1_193" x1="220.193" y1="53.6271" x2="228.181" y2="56.078" gradientUnits="userSpaceOnUse">
<stop stop-color="#FFC444"/>
<stop offset="0.3138" stop-color="#FBA94A"/>
<stop offset="0.9964" stop-color="#F36F56"/>
</linearGradient>
<linearGradient id="paint31_linear_1_193" x1="214.184" y1="69.8982" x2="234.551" y2="69.8982" gradientUnits="userSpaceOnUse">
<stop stop-color="#AA80F9"/>
<stop offset="0.9964" stop-color="#6165D7"/>
</linearGradient>
<linearGradient id="paint32_linear_1_193" x1="233.167" y1="60.6439" x2="218.887" y2="74.6445" gradientUnits="userSpaceOnUse">
<stop stop-color="#AA80F9"/>
<stop offset="0.9964" stop-color="#6165D7"/>
</linearGradient>
<linearGradient id="paint33_linear_1_193" x1="280.024" y1="30.4364" x2="221.853" y2="57.5092" gradientUnits="userSpaceOnUse">
<stop stop-color="#AA80F9"/>
<stop offset="0.9964" stop-color="#6165D7"/>
</linearGradient>
<linearGradient id="paint34_linear_1_193" x1="214.659" y1="54.7494" x2="252.424" y2="54.7494" gradientUnits="userSpaceOnUse">
<stop stop-color="#AA80F9"/>
<stop offset="0.9964" stop-color="#6165D7"/>
</linearGradient>
<linearGradient id="paint35_linear_1_193" x1="248.437" y1="50.1383" x2="228.697" y2="33.6923" gradientUnits="userSpaceOnUse">
<stop stop-color="#AA80F9"/>
<stop offset="0.9964" stop-color="#6165D7"/>
</linearGradient>
<linearGradient id="paint36_linear_1_193" x1="242.606" y1="72.0958" x2="213.047" y2="47.4689" gradientUnits="userSpaceOnUse">
<stop stop-color="#AA80F9"/>
<stop offset="0.9964" stop-color="#6165D7"/>
</linearGradient>
<linearGradient id="paint37_linear_1_193" x1="234.928" y1="72.987" x2="196.608" y2="-31.794" gradientUnits="userSpaceOnUse">
<stop stop-color="#AA80F9"/>
<stop offset="0.9964" stop-color="#6165D7"/>
</linearGradient>
<linearGradient id="paint38_linear_1_193" x1="238.746" y1="53.5961" x2="255.946" y2="53.5961" gradientUnits="userSpaceOnUse">
<stop stop-color="#AA80F9"/>
<stop offset="0.9964" stop-color="#6165D7"/>
</linearGradient>
<linearGradient id="paint39_linear_1_193" x1="252.624" y1="58.715" x2="241.403" y2="49.3667" gradientUnits="userSpaceOnUse">
<stop stop-color="#AA80F9"/>
<stop offset="0.9964" stop-color="#6165D7"/>
</linearGradient>
<linearGradient id="paint40_linear_1_193" x1="208.821" y1="62.3322" x2="229.037" y2="62.3322" gradientUnits="userSpaceOnUse">
<stop stop-color="#AA80F9"/>
<stop offset="0.9964" stop-color="#6165D7"/>
</linearGradient>
<linearGradient id="paint41_linear_1_193" x1="223.045" y1="70.1931" x2="208.69" y2="58.2338" gradientUnits="userSpaceOnUse">
<stop stop-color="#AA80F9"/>
<stop offset="0.9964" stop-color="#6165D7"/>
</linearGradient>
<linearGradient id="paint42_linear_1_193" x1="222.224" y1="50.0886" x2="245.544" y2="50.0886" gradientUnits="userSpaceOnUse">
<stop stop-color="#AA80F9"/>
<stop offset="0.9964" stop-color="#6165D7"/>
</linearGradient>
<linearGradient id="paint43_linear_1_193" x1="241.709" y1="56.6657" x2="225.265" y2="42.9659" gradientUnits="userSpaceOnUse">
<stop stop-color="#AA80F9"/>
<stop offset="0.9964" stop-color="#6165D7"/>
</linearGradient>
<linearGradient id="paint44_linear_1_193" x1="242.598" y1="67.868" x2="229.995" y2="83.4998" gradientUnits="userSpaceOnUse">
<stop stop-color="#AA80F9"/>
<stop offset="0.9964" stop-color="#6165D7"/>
</linearGradient>
<linearGradient id="paint45_linear_1_193" x1="188.387" y1="26.2653" x2="190.46" y2="6.8103" gradientUnits="userSpaceOnUse">
<stop stop-color="#AA80F9"/>
<stop offset="0.9964" stop-color="#6165D7"/>
</linearGradient>
<linearGradient id="paint46_linear_1_193" x1="195.055" y1="66.9428" x2="211.24" y2="67.8349" gradientUnits="userSpaceOnUse">
<stop offset="0.00359712" stop-color="#EBEFF2"/>
<stop offset="1" stop-color="white"/>
</linearGradient>
<linearGradient id="paint47_linear_1_193" x1="166.583" y1="62.0198" x2="190.162" y2="62.0198" gradientUnits="userSpaceOnUse">
<stop stop-color="#AA80F9"/>
<stop offset="0.9964" stop-color="#6165D7"/>
</linearGradient>
<linearGradient id="paint48_linear_1_193" x1="172.275" y1="28.6093" x2="180.034" y2="31.9512" gradientUnits="userSpaceOnUse">
<stop offset="0.00359712" stop-color="#EBEFF2"/>
<stop offset="1" stop-color="white"/>
</linearGradient>
<linearGradient id="paint49_linear_1_193" x1="168.979" y1="61.3528" x2="178.289" y2="61.3528" gradientUnits="userSpaceOnUse">
<stop offset="0.00359712" stop-color="#EBEFF2"/>
<stop offset="1" stop-color="white"/>
</linearGradient>
<linearGradient id="paint50_linear_1_193" x1="168.979" y1="53.7792" x2="178.289" y2="53.7792" gradientUnits="userSpaceOnUse">
<stop offset="0.00359712" stop-color="#EBEFF2"/>
<stop offset="1" stop-color="white"/>
</linearGradient>
<linearGradient id="paint51_linear_1_193" x1="168.979" y1="47.5865" x2="178.289" y2="47.5865" gradientUnits="userSpaceOnUse">
<stop offset="0.00359712" stop-color="#EBEFF2"/>
<stop offset="1" stop-color="white"/>
</linearGradient>
<linearGradient id="paint52_linear_1_193" x1="168.979" y1="39.4217" x2="178.289" y2="39.4217" gradientUnits="userSpaceOnUse">
<stop offset="0.00359712" stop-color="#EBEFF2"/>
<stop offset="1" stop-color="white"/>
</linearGradient>
<linearGradient id="paint53_linear_1_193" x1="195.031" y1="29.7669" x2="196.688" y2="14.2197" gradientUnits="userSpaceOnUse">
<stop offset="0.00359712" stop-color="#EBEFF2"/>
<stop offset="1" stop-color="white"/>
</linearGradient>
<linearGradient id="paint54_linear_1_193" x1="205.969" y1="40.5123" x2="209.381" y2="40.5123" gradientUnits="userSpaceOnUse">
<stop stop-color="#311944"/>
<stop offset="1" stop-color="#893976"/>
</linearGradient>
<linearGradient id="paint55_linear_1_193" x1="194.331" y1="57.5682" x2="226.368" y2="57.5682" gradientUnits="userSpaceOnUse">
<stop stop-color="#FF9085"/>
<stop offset="1" stop-color="#FB6FBB"/>
</linearGradient>
<linearGradient id="paint56_linear_1_193" x1="194.331" y1="58.8771" x2="224.521" y2="58.8771" gradientUnits="userSpaceOnUse">
<stop stop-color="#FF9085"/>
<stop offset="1" stop-color="#FB6FBB"/>
</linearGradient>
<linearGradient id="paint57_linear_1_193" x1="147.015" y1="18.5379" x2="176.289" y2="126.018" gradientUnits="userSpaceOnUse">
<stop stop-color="#FFC444"/>
<stop offset="0.3138" stop-color="#FBA94A"/>
<stop offset="0.9964" stop-color="#F36F56"/>
</linearGradient>
<linearGradient id="paint58_linear_1_193" x1="171.235" y1="98.0606" x2="145.154" y2="171.033" gradientUnits="userSpaceOnUse">
<stop stop-color="#FFC444"/>
<stop offset="0.3138" stop-color="#FBA94A"/>
<stop offset="0.9964" stop-color="#F36F56"/>
</linearGradient>
<linearGradient id="paint59_linear_1_193" x1="214.634" y1="99.7496" x2="180.222" y2="196.03" gradientUnits="userSpaceOnUse">
<stop stop-color="#FFC444"/>
<stop offset="0.3138" stop-color="#FBA94A"/>
<stop offset="0.9964" stop-color="#F36F56"/>
</linearGradient>
<linearGradient id="paint60_linear_1_193" x1="208.946" y1="113.03" x2="183.306" y2="184.766" gradientUnits="userSpaceOnUse">
<stop stop-color="#FFC444"/>
<stop offset="0.3138" stop-color="#FBA94A"/>
<stop offset="0.9964" stop-color="#F36F56"/>
</linearGradient>
<linearGradient id="paint61_linear_1_193" x1="252.288" y1="113.174" x2="256.046" y2="139.889" gradientUnits="userSpaceOnUse">
<stop stop-color="#FFC444"/>
<stop offset="0.9964" stop-color="#F36F56"/>
</linearGradient>
<linearGradient id="paint62_linear_1_193" x1="162.567" y1="145.127" x2="166.326" y2="171.841" gradientUnits="userSpaceOnUse">
<stop stop-color="#FFC444"/>
<stop offset="0.9964" stop-color="#F36F56"/>
</linearGradient>
<linearGradient id="paint63_linear_1_193" x1="238.161" y1="264.319" x2="243.841" y2="281.224" gradientUnits="userSpaceOnUse">
<stop stop-color="#FFC444"/>
<stop offset="0.9964" stop-color="#F36F56"/>
</linearGradient>
<linearGradient id="paint64_linear_1_193" x1="230.886" y1="266.825" x2="236.524" y2="283.605" gradientUnits="userSpaceOnUse">
<stop stop-color="#FFC444"/>
<stop offset="0.9964" stop-color="#F36F56"/>
</linearGradient>
<linearGradient id="paint65_linear_1_193" x1="253.835" y1="255.651" x2="227.166" y2="225.58" gradientUnits="userSpaceOnUse">
<stop stop-color="#444B8C"/>
<stop offset="0.9964" stop-color="#3E4177"/>
</linearGradient>
<linearGradient id="paint66_linear_1_193" x1="253.835" y1="255.651" x2="227.166" y2="225.58" gradientUnits="userSpaceOnUse">
<stop stop-color="#444B8C"/>
<stop offset="0.9964" stop-color="#3E4177"/>
</linearGradient>
<linearGradient id="paint67_linear_1_193" x1="220.298" y1="238.511" x2="180.92" y2="231.172" gradientUnits="userSpaceOnUse">
<stop stop-color="#444B8C"/>
<stop offset="0.9964" stop-color="#3E4177"/>
</linearGradient>
<linearGradient id="paint68_linear_1_193" x1="201.445" y1="116.67" x2="225.966" y2="206.701" gradientUnits="userSpaceOnUse">
<stop stop-color="#FF9085"/>
<stop offset="1" stop-color="#FB6FBB"/>
</linearGradient>
<linearGradient id="paint69_linear_1_193" x1="212.405" y1="151.151" x2="216.538" y2="163.341" gradientUnits="userSpaceOnUse">
<stop stop-color="#FFC444"/>
<stop offset="0.9964" stop-color="#F36F56"/>
</linearGradient>
<linearGradient id="paint70_linear_1_193" x1="268.47" y1="313.832" x2="272.9" y2="326.898" gradientUnits="userSpaceOnUse">
<stop stop-color="#FFC444"/>
<stop offset="0.9964" stop-color="#F36F56"/>
</linearGradient>
<linearGradient id="paint71_linear_1_193" x1="364.002" y1="392.941" x2="375.413" y2="411.332" gradientUnits="userSpaceOnUse">
<stop stop-color="#FFC444"/>
<stop offset="0.9964" stop-color="#F36F56"/>
</linearGradient>
<linearGradient id="paint72_linear_1_193" x1="184.162" y1="121.377" x2="208.684" y2="211.409" gradientUnits="userSpaceOnUse">
<stop stop-color="#FF9085"/>
<stop offset="1" stop-color="#FB6FBB"/>
</linearGradient>
<linearGradient id="paint73_linear_1_193" x1="212.076" y1="139.418" x2="213.112" y2="143.225" gradientUnits="userSpaceOnUse">
<stop stop-color="#FF9085"/>
<stop offset="1" stop-color="#FB6FBB"/>
</linearGradient>
<linearGradient id="paint74_linear_1_193" x1="212.076" y1="139.418" x2="213.112" y2="143.225" gradientUnits="userSpaceOnUse">
<stop stop-color="#FF9085"/>
<stop offset="1" stop-color="#FB6FBB"/>
</linearGradient>
<linearGradient id="paint75_linear_1_193" x1="213.643" y1="137.495" x2="216.379" y2="147.542" gradientUnits="userSpaceOnUse">
<stop stop-color="#FF9085"/>
<stop offset="1" stop-color="#FB6FBB"/>
</linearGradient>
<linearGradient id="paint76_linear_1_193" x1="212.461" y1="149.412" x2="214.687" y2="157.586" gradientUnits="userSpaceOnUse">
<stop stop-color="#311944"/>
<stop offset="0.5554" stop-color="#6F2B60"/>
<stop offset="1" stop-color="#A03976"/>
</linearGradient>
<linearGradient id="paint77_linear_1_193" x1="180.812" y1="180.132" x2="154.718" y2="229.924" gradientUnits="userSpaceOnUse">
<stop stop-color="#AA80F9"/>
<stop offset="0.9964" stop-color="#6165D7"/>
</linearGradient>
<linearGradient id="paint78_linear_1_193" x1="162.577" y1="217.595" x2="132.626" y2="253.5" gradientUnits="userSpaceOnUse">
<stop stop-color="#FF9085"/>
<stop offset="1" stop-color="#FB6FBB"/>
</linearGradient>
</defs>
</svg>
