<svg width="375" height="452" viewBox="0 0 375 452" fill="none" xmlns="http://www.w3.org/2000/svg">
<path d="M111.5 428.5C28.3 403.7 -18.1667 411.167 -31 418L-41 -140H451.5L466 275C468.333 282.667 459.1 315.2 403.5 384C334 470 215.5 459.5 111.5 428.5Z" fill="url(#paint0_linear_1_2608)"/>
<path d="M111.5 428.5C28.3 403.7 -18.1667 411.167 -31 418L-41 -140H451.5L466 275C468.333 282.667 459.1 315.2 403.5 384C334 470 215.5 459.5 111.5 428.5Z" fill="white" fill-opacity="0.5"/>
<path d="M111.5 414.5C28.3 389.7 -18.1667 404.167 -31 411L-41 -170H451.5L466 245C468.333 242.667 459.1 275.2 403.5 344C334 430 215.5 445.5 111.5 414.5Z" fill="url(#paint1_linear_1_2608)"/>
<path d="M-4.00013 416.5C-7.00013 391.5 21.0289 319.728 154 334C345 354.5 425 258 438 115C451 -28 481.004 31.6087 479 -35.5C477.608 -82.0831 389 -176 389 -176" stroke="white" stroke-opacity="0.13"/>
<path d="M-42.7902 348.5C-45.7902 323.5 -17.7611 251.728 115.21 266C306.21 286.5 386.21 190 399.21 47C412.21 -96 442.214 -36.3913 440.21 -103.5C438.818 -150.083 350.21 -244 350.21 -244" stroke="white" stroke-opacity="0.13"/>
<path d="M-91.7902 265.5C-94.7902 240.5 -66.7611 168.728 66.2099 183C257.21 203.5 337.21 107 350.21 -36C363.21 -179 393.214 -119.391 391.21 -186.5C389.818 -233.083 301.21 -327 301.21 -327" stroke="white" stroke-opacity="0.13"/>
<path d="M-140.79 182.5C-143.79 157.5 -115.761 85.7282 17.2099 100C208.21 120.5 288.21 24 301.21 -119C314.21 -262 344.214 -202.391 342.21 -269.5C340.818 -316.083 252.21 -410 252.21 -410" stroke="white" stroke-opacity="0.13"/>
<defs>
<linearGradient id="paint0_linear_1_2608" x1="-41" y1="155.541" x2="470.299" y2="155.541" gradientUnits="userSpaceOnUse">
<stop stop-color="#FF8B38"/>
<stop offset="1" stop-color="#F3664B"/>
</linearGradient>
<linearGradient id="paint1_linear_1_2608" x1="-41" y1="129.604" x2="470.299" y2="129.604" gradientUnits="userSpaceOnUse">
<stop stop-color="#FF8B38"/>
<stop offset="1" stop-color="#F3664B"/>
</linearGradient>
</defs>
</svg>
